<svg width="20" height="20" viewBox="0 0 20 20" fill="none" xmlns="http://www.w3.org/2000/svg">
<path d="M9.1665 15H10.8332V13.3333H9.1665V15ZM9.99984 1.66667C5.39984 1.66667 1.6665 5.4 1.6665 10C1.6665 14.6 5.39984 18.3333 9.99984 18.3333C14.5998 18.3333 18.3332 14.6 18.3332 10C18.3332 5.4 14.5998 1.66667 9.99984 1.66667ZM9.99984 16.6667C6.32484 16.6667 3.33317 13.675 3.33317 10C3.33317 6.325 6.32484 3.33333 9.99984 3.33333C13.6748 3.33333 16.6665 6.325 16.6665 10C16.6665 13.675 13.6748 16.6667 9.99984 16.6667ZM9.99984 5C8.15817 5 6.6665 6.49167 6.6665 8.33333H8.33317C8.33317 7.41667 9.08317 6.66667 9.99984 6.66667C10.9165 6.66667 11.6665 7.41667 11.6665 8.33333C11.6665 10 9.1665 9.79167 9.1665 12.5H10.8332C10.8332 10.625 13.3332 10.4167 13.3332 8.33333C13.3332 6.49167 11.8415 5 9.99984 5Z" fill="#7635F3"/>
</svg>
