<svg width="112" height="89" viewBox="0 0 112 89" fill="none" xmlns="http://www.w3.org/2000/svg">
<path d="M9.7189 81.866H10.6149V83H9.7049C8.91157 83 8.2769 82.9067 7.8009 82.72C7.33423 82.5333 6.90023 82.1973 6.4989 81.712C6.1909 81.824 5.71957 81.9453 5.0849 82.076C4.0209 82.3 3.31157 82.5893 2.9569 82.944C2.5089 83.3733 2.2849 83.9753 2.2849 84.75C2.2849 85.534 2.54157 86.1407 3.0549 86.57C3.48423 86.934 4.0349 87.116 4.7069 87.116C5.73357 87.1067 6.59223 86.8593 7.2829 86.374V87.508C6.48957 88.0027 5.59823 88.25 4.6089 88.25C3.5449 88.25 2.68623 87.8953 2.0329 87.186C1.4449 86.5513 1.1509 85.7347 1.1509 84.736C1.1509 83.6627 1.46823 82.8087 2.1029 82.174C2.3829 81.894 2.7049 81.6747 3.0689 81.516C3.4329 81.3573 3.98357 81.1987 4.7209 81.04C5.4209 80.8907 5.93423 80.746 6.2609 80.606C6.5969 80.466 6.88623 80.2653 7.1289 80.004C6.36357 78.5667 5.4209 77.848 4.3009 77.848C3.55423 77.848 2.77023 78.2493 1.9489 79.052V77.932C2.7329 77.1387 3.56823 76.742 4.4549 76.742C5.16423 76.742 5.8549 77.0033 6.5269 77.526C7.1989 78.0487 7.79157 78.786 8.3049 79.738V80.354C8.0529 80.718 7.7589 81.012 7.4229 81.236C7.91757 81.656 8.6829 81.866 9.7189 81.866ZM14.1544 75.314C13.697 75.314 13.4684 75.0807 13.4684 74.614C13.4684 74.1567 13.697 73.928 14.1544 73.928C14.6024 73.928 14.8264 74.1567 14.8264 74.614C14.8264 75.0807 14.6024 75.314 14.1544 75.314ZM15.8904 81.866H18.4944V83H15.0784C14.7144 83 14.397 82.9673 14.1264 82.902C13.865 82.9673 13.5477 83 13.1744 83H9.77238V81.866H12.3764C11.7977 81.2033 11.5084 80.4707 11.5084 79.668C11.5084 78.7533 11.765 78.0253 12.2784 77.484C12.745 76.9893 13.361 76.742 14.1264 76.742C15.0037 76.742 15.6804 77.0593 16.1564 77.694C16.5577 78.2167 16.7584 78.8747 16.7584 79.668C16.7584 80.4707 16.469 81.2033 15.8904 81.866ZM14.1404 81.74C14.5697 81.5907 14.9197 81.32 15.1904 80.928C15.461 80.5267 15.5964 80.088 15.5964 79.612C15.5964 79.0707 15.461 78.646 15.1904 78.338C14.929 78.0207 14.5744 77.862 14.1264 77.862C13.6784 77.862 13.319 78.0207 13.0484 78.338C12.787 78.6553 12.6564 79.08 12.6564 79.612C12.6564 80.0787 12.7964 80.5127 13.0764 80.914C13.3564 81.3153 13.711 81.5907 14.1404 81.74ZM31.9971 81.866H32.9211V83H31.8571C31.0731 83 30.4617 82.7573 30.0231 82.272C29.5844 82.7573 28.9731 83 28.1891 83H22.3931C21.6184 83 21.0071 82.7527 20.5591 82.258C20.1111 82.7527 19.4997 83 18.7251 83H17.6611V81.866H18.5851C19.4997 81.866 19.9571 81.3993 19.9571 80.466V78.506L21.1611 77.862V80.466C21.1611 81.25 21.4644 81.7027 22.0711 81.824C22.4444 80.4147 23.0604 79.2387 23.9191 78.296C24.8804 77.26 26.0004 76.742 27.2791 76.742C28.3431 76.742 29.1924 77.1107 29.8271 77.848C30.3591 78.4733 30.6251 79.2433 30.6251 80.158V80.494C30.6251 81.4087 31.0824 81.866 31.9971 81.866ZM28.1191 81.866C28.9871 81.866 29.4211 81.3807 29.4211 80.41V80.158C29.4211 79.43 29.1971 78.8513 28.7491 78.422C28.3571 78.0487 27.8717 77.862 27.2931 77.862C26.3037 77.862 25.4124 78.3193 24.6191 79.234C24.0124 79.934 23.5457 80.8113 23.2191 81.866H28.1191ZM33.1629 75.23C32.7055 75.23 32.4769 74.9967 32.4769 74.53C32.4769 74.0727 32.7055 73.844 33.1629 73.844C33.6109 73.844 33.8349 74.0727 33.8349 74.53C33.8349 74.9967 33.6109 75.23 33.1629 75.23ZM34.9409 75.23C34.4835 75.23 34.2549 74.9967 34.2549 74.53C34.2549 74.0727 34.4835 73.844 34.9409 73.844C35.3889 73.844 35.6129 74.0727 35.6129 74.53C35.6129 74.9967 35.3889 75.23 34.9409 75.23ZM32.0849 83V81.866H33.0089C33.9235 81.866 34.3809 81.3993 34.3809 80.466V77.568L35.5849 76.924V80.508C35.5849 81.3013 35.3469 81.9267 34.8709 82.384C34.4322 82.7947 33.8582 83 33.1489 83H32.0849Z" fill="#7635F3"/>
<path d="M44.8104 82.552C44.4558 82.692 44.0218 82.762 43.5084 82.762C42.6778 82.762 42.0244 82.4493 41.5484 81.824C41.1471 81.292 40.9464 80.6247 40.9464 79.822C40.9464 78.8327 41.2124 78.058 41.7444 77.498C42.2204 76.994 42.8458 76.742 43.6204 76.742C44.4138 76.742 45.0251 76.9893 45.4544 77.484C45.8371 77.9227 46.0284 78.4967 46.0284 79.206V82.258C46.0284 83.3127 45.7531 84.148 45.2024 84.764C44.6798 85.3427 43.9844 85.632 43.1164 85.632C42.5378 85.632 41.9918 85.4967 41.4784 85.226V84.162C41.9731 84.4233 42.4631 84.554 42.9484 84.554C43.4991 84.554 43.9378 84.3767 44.2644 84.022C44.5911 83.6767 44.7731 83.1867 44.8104 82.552ZM44.8104 79.262C44.8104 78.3287 44.4138 77.862 43.6204 77.862C43.1538 77.862 42.7851 78.0347 42.5144 78.38C42.2531 78.7253 42.1224 79.1967 42.1224 79.794C42.1224 80.382 42.2484 80.8533 42.5004 81.208C42.7618 81.5533 43.1118 81.726 43.5504 81.726C44.1664 81.726 44.5864 81.5533 44.8104 81.208V79.262ZM47.6655 73.774L47.9875 73.172H48.3655C48.2721 73.004 48.2255 72.8313 48.2255 72.654C48.2255 72.374 48.3281 72.136 48.5335 71.94C48.7388 71.7347 48.9815 71.632 49.2615 71.632C49.4948 71.632 49.7188 71.7067 49.9335 71.856V72.472C49.7281 72.3133 49.5321 72.234 49.3455 72.234C49.0001 72.234 48.8275 72.388 48.8275 72.696C48.8275 72.8547 48.8928 73.0133 49.0235 73.172H50.2975L49.9755 73.774H47.6655ZM48.4075 83V75.174L49.6115 74.53V83H48.4075ZM56.8498 75.09C56.3925 75.09 56.1638 74.8567 56.1638 74.39C56.1638 73.9327 56.3925 73.704 56.8498 73.704C57.2978 73.704 57.5218 73.9327 57.5218 74.39C57.5218 74.8567 57.2978 75.09 56.8498 75.09ZM58.6418 75.09C58.1845 75.09 57.9558 74.8567 57.9558 74.39C57.9558 73.9327 58.1845 73.704 58.6418 73.704C59.0898 73.704 59.3138 73.9327 59.3138 74.39C59.3138 74.8567 59.0898 75.09 58.6418 75.09ZM57.7598 83C56.9105 83 56.2478 82.7153 55.7718 82.146C55.3611 81.6513 55.1558 81.0213 55.1558 80.256C55.1558 79.4253 55.3845 78.7067 55.8418 78.1C56.3085 77.484 56.9711 77.0313 57.8298 76.742C58.7351 77.05 59.4165 77.5353 59.8738 78.198C60.2845 78.786 60.4898 79.472 60.4898 80.256C60.4898 81.1427 60.2285 81.838 59.7058 82.342C59.2391 82.7807 58.6371 83 57.8998 83H57.7598ZM57.7178 81.866H57.9278C58.3478 81.866 58.6791 81.7213 58.9218 81.432C59.1738 81.1427 59.2998 80.7553 59.2998 80.27C59.2998 79.15 58.8098 78.3473 57.8298 77.862C56.8498 78.3473 56.3598 79.1453 56.3598 80.256C56.3598 80.7507 56.4811 81.1427 56.7238 81.432C56.9665 81.7213 57.2978 81.866 57.7178 81.866ZM64.7666 82.258C64.7666 83.3033 64.4912 84.1433 63.9406 84.778C63.4179 85.3847 62.7226 85.688 61.8546 85.688C61.2946 85.688 60.7486 85.548 60.2166 85.268V84.218C60.6926 84.4793 61.1686 84.61 61.6446 84.61C62.2419 84.61 62.7086 84.4093 63.0446 84.008C63.3806 83.6067 63.5486 83.0513 63.5486 82.342V77.568L64.7666 76.924V82.258ZM73.8263 81.866V83H72.0903C72.053 83.8027 71.7077 84.4653 71.0543 84.988C70.5037 85.4173 69.8783 85.632 69.1783 85.632C68.5997 85.632 68.0537 85.4967 67.5403 85.226V84.162C68.035 84.4233 68.525 84.554 69.0103 84.554C69.505 84.554 69.9343 84.4 70.2983 84.092C70.6717 83.784 70.863 83.4153 70.8723 82.986C70.387 82.9673 70.0277 82.9487 69.7943 82.93C68.7863 82.874 68.0257 82.5333 67.5123 81.908C67.083 81.3853 66.8683 80.7087 66.8683 79.878C66.8683 78.8607 67.139 78.0673 67.6803 77.498C68.1657 76.994 68.805 76.742 69.5983 76.742C70.429 76.742 71.0683 76.9893 71.5163 77.484C71.899 77.9227 72.0903 78.4967 72.0903 79.206V81.866H73.8263ZM70.8723 79.29C70.8723 78.338 70.4477 77.862 69.5983 77.862C69.113 77.862 68.735 78.0393 68.4643 78.394C68.1937 78.7393 68.0583 79.2247 68.0583 79.85C68.0583 81.0727 68.6557 81.7213 69.8503 81.796C70.0743 81.824 70.415 81.8473 70.8723 81.866V79.29ZM77.4011 81.824C77.7745 80.4147 78.3905 79.2387 79.2491 78.296C80.2105 77.26 81.3305 76.742 82.6091 76.742C83.6731 76.742 84.5225 77.1107 85.1571 77.848C85.6891 78.4733 85.9551 79.2433 85.9551 80.158V80.522C85.9551 81.334 85.7078 81.964 85.2131 82.412C84.7838 82.804 84.2191 83 83.5191 83H77.7231C76.9485 83 76.3371 82.7527 75.8891 82.258C75.4411 82.7527 74.8298 83 74.0551 83H72.9911V81.866H73.9151C74.8298 81.866 75.2871 81.3993 75.2871 80.466V78.506L76.4911 77.862V80.466C76.4911 81.25 76.7945 81.7027 77.4011 81.824ZM84.7511 80.41V80.158C84.7511 79.43 84.5271 78.8513 84.0791 78.422C83.6871 78.0487 83.2018 77.862 82.6231 77.862C81.6338 77.862 80.7425 78.3193 79.9491 79.234C79.3425 79.934 78.8758 80.8113 78.5491 81.866H83.4491C84.3171 81.866 84.7511 81.3807 84.7511 80.41ZM94.5962 82.664C93.7095 83.196 93.1729 83.56 92.9862 83.756C92.6129 84.12 92.4262 84.5727 92.4262 85.114C92.4262 85.7113 92.6315 86.192 93.0422 86.556C93.4529 86.9293 93.9849 87.116 94.6382 87.116C95.6649 87.1067 96.5235 86.8593 97.2142 86.374V87.508C96.4115 88.0027 95.5342 88.25 94.5822 88.25C93.5462 88.25 92.7155 87.9093 92.0902 87.228C91.5489 86.6493 91.2782 85.9353 91.2782 85.086C91.2782 84.4513 91.4462 83.91 91.7822 83.462C92.1182 83.0233 92.7109 82.5613 93.5602 82.076C92.7949 81.516 92.0109 80.6387 91.2082 79.444V78.828C91.6655 78.1747 92.2022 77.666 92.8182 77.302C93.4342 76.9287 94.0595 76.742 94.6942 76.742C95.3195 76.742 95.9449 76.9333 96.5702 77.316C97.1955 77.6893 97.7322 78.2027 98.1802 78.856V79.444C97.7042 80.1627 96.9155 80.9607 95.8142 81.838C96.0195 81.8567 96.1829 81.866 96.3042 81.866H100L100.014 83H96.2062C95.6555 83 95.1189 82.888 94.5962 82.664ZM92.3282 79.15C93.1682 80.298 93.9335 81.0587 94.6242 81.432C95.5295 80.816 96.3415 80.046 97.0602 79.122C96.3695 78.282 95.5809 77.8573 94.6942 77.848C93.7982 77.848 93.0095 78.282 92.3282 79.15ZM103.737 75.314C103.279 75.314 103.051 75.0807 103.051 74.614C103.051 74.1567 103.279 73.928 103.737 73.928C104.185 73.928 104.409 74.1567 104.409 74.614C104.409 75.0807 104.185 75.314 103.737 75.314ZM99.1728 83V81.866H101.693C101.263 81.39 101.049 80.7273 101.049 79.878C101.049 78.8607 101.315 78.0673 101.847 77.498C102.313 76.994 102.934 76.742 103.709 76.742C104.502 76.742 105.118 76.9893 105.557 77.484C105.93 77.9227 106.117 78.4967 106.117 79.206V80.536C106.107 81.3107 105.879 81.922 105.431 82.37C104.992 82.79 104.409 83 103.681 83H99.1728ZM104.913 79.262C104.913 78.3287 104.511 77.862 103.709 77.862C103.251 77.862 102.892 78.0393 102.631 78.394C102.369 78.7393 102.239 79.2247 102.239 79.85C102.239 80.466 102.365 80.956 102.617 81.32C102.869 81.684 103.205 81.866 103.625 81.866C104.483 81.866 104.913 81.418 104.913 80.522V79.262ZM110.567 82.258C110.567 83.3033 110.292 84.1433 109.741 84.778C109.219 85.3847 108.523 85.688 107.655 85.688C107.095 85.688 106.549 85.548 106.017 85.268V84.218C106.493 84.4793 106.969 84.61 107.445 84.61C108.043 84.61 108.509 84.4093 108.845 84.008C109.181 83.6067 109.349 83.0513 109.349 82.342V77.568L110.567 76.924V82.258Z" fill="#292929"/>
<path d="M83.5 45V15C83.5 12.25 81.25 10 78.5 10H33.5C30.75 10 28.5 12.25 28.5 15V45C28.5 47.75 30.75 50 33.5 50H78.5C81.25 50 83.5 47.75 83.5 45ZM48.25 32.45L53.5 38.775L61.25 28.8C61.75 28.15 62.75 28.15 63.25 28.825L72.025 40.525C72.65 41.35 72.05 42.525 71.025 42.525H41.05C40 42.525 39.425 41.325 40.075 40.5L46.3 32.5C46.775 31.85 47.725 31.825 48.25 32.45Z" fill="#929292"/>
</svg>
