<svg width="30" height="30" viewBox="0 0 30 30" fill="none" xmlns="http://www.w3.org/2000/svg">
<path d="M28.75 22.5V7.5C28.75 6.125 27.625 5 26.25 5H3.75C2.375 5 1.25 6.125 1.25 7.5V22.5C1.25 23.875 2.375 25 3.75 25H26.25C27.625 25 28.75 23.875 28.75 22.5ZM11.125 16.225L13.75 19.3875L17.625 14.4C17.875 14.075 18.375 14.075 18.625 14.4125L23.0125 20.2625C23.325 20.675 23.025 21.2625 22.5125 21.2625H7.525C7 21.2625 6.7125 20.6625 7.0375 20.25L10.15 16.25C10.3875 15.925 10.8625 15.9125 11.125 16.225Z" fill="#929292"/>
</svg>
