<svg width="18" height="19" viewBox="0 0 18 19" fill="none" xmlns="http://www.w3.org/2000/svg">
<path d="M1.66668 16.5H10C10.4583 16.5 10.8333 16.875 10.8333 17.3333C10.8333 17.7917 10.4583 18.1667 10 18.1667H1.66668C1.20834 18.1667 0.833344 17.7917 0.833344 17.3333C0.833344 16.875 1.20834 16.5 1.66668 16.5ZM4.36668 5.72501L6.72501 3.36668L17.3333 13.975C17.9833 14.625 17.9833 15.6833 17.3333 16.3333C16.6833 16.9833 15.625 16.9833 14.975 16.3333L4.36668 5.72501ZM11.4417 1.00834L13.8 3.36668C14.45 4.01668 14.45 5.07501 13.8 5.72501L12.6167 6.90834L7.90834 2.19168L9.08334 1.01668C9.73334 0.358344 10.7917 0.358344 11.4417 1.00834V1.00834ZM3.19168 6.90001L7.90834 11.6167L6.73334 12.7917C6.08334 13.4417 5.02501 13.4417 4.37501 12.7917L2.01668 10.4333C1.36668 9.78334 1.36668 8.72501 2.01668 8.07501L3.19168 6.90001Z" fill="#929292"/>
</svg>
