<svg width="18" height="18" viewBox="0 0 18 18" fill="none" xmlns="http://www.w3.org/2000/svg">
<path d="M8.99999 0.666748C4.39999 0.666748 0.666656 4.40008 0.666656 9.00008C0.666656 13.6001 4.39999 17.3334 8.99999 17.3334C13.6 17.3334 17.3333 13.6001 17.3333 9.00008C17.3333 4.40008 13.6 0.666748 8.99999 0.666748ZM10.175 14.0751V14.5584C10.175 15.1667 9.67499 15.6667 9.06666 15.6667H9.05832C8.44999 15.6667 7.94999 15.1667 7.94999 14.5584V14.0584C6.84166 13.8251 5.85832 13.2167 5.44166 12.1917C5.24999 11.7334 5.60832 11.2251 6.10832 11.2251H6.30832C6.61666 11.2251 6.86666 11.4334 6.98332 11.7251C7.22499 12.3501 7.85832 12.7834 9.07499 12.7834C10.7083 12.7834 11.075 11.9667 11.075 11.4584C11.075 10.7667 10.7083 10.1167 8.84999 9.67508C6.78332 9.17508 5.36666 8.32508 5.36666 6.61675C5.36666 5.18342 6.52499 4.25008 7.95832 3.94175V3.44175C7.95832 2.83341 8.45832 2.33341 9.06666 2.33341H9.07499C9.68332 2.33341 10.1833 2.83341 10.1833 3.44175V3.95841C11.3333 4.24175 12.0583 4.95841 12.375 5.84175C12.5417 6.30008 12.1917 6.78342 11.7 6.78342H11.4833C11.175 6.78342 10.925 6.56675 10.8417 6.26675C10.65 5.63342 10.125 5.22508 9.07499 5.22508C7.82499 5.22508 7.07499 5.79175 7.07499 6.59175C7.07499 7.29175 7.61666 7.75008 9.29999 8.18342C10.9833 8.61675 12.7833 9.34175 12.7833 11.4417C12.7667 12.9667 11.625 13.8001 10.175 14.0751V14.0751Z" fill="#7635F3"/>
</svg>
