<svg width="22" height="21" viewBox="0 0 22 21" fill="none" xmlns="http://www.w3.org/2000/svg">
<path d="M10.9399 1.89759C13.7755 1.89759 14.1622 1.89759 15.3222 1.89759C16.3534 1.89759 16.869 2.1506 17.2556 2.27711C17.7712 2.53012 18.1579 2.65663 18.5446 3.03615C18.9313 3.41566 19.189 3.79518 19.3179 4.30121C19.4468 4.68072 19.5757 5.18675 19.7046 6.1988C19.7046 7.33735 19.7046 7.59036 19.7046 10.5C19.7046 13.4096 19.7046 13.6627 19.7046 14.8012C19.7046 15.8133 19.4468 16.3193 19.3179 16.6988C19.0602 17.2048 18.9313 17.5843 18.5446 17.9639C18.1579 18.3434 17.7712 18.5964 17.2556 18.7229C16.869 18.8494 16.3534 18.9759 15.3222 19.1024C14.1622 19.1024 13.9044 19.1024 10.9399 19.1024C7.97531 19.1024 7.71752 19.1024 6.55748 19.1024C5.52633 19.1024 5.01076 18.8494 4.62408 18.7229C4.10851 18.4699 3.72182 18.3434 3.33514 17.9639C2.94846 17.5843 2.69068 17.2048 2.56178 16.6988C2.43289 16.3193 2.304 15.8133 2.1751 14.8012C2.1751 13.6627 2.1751 13.4096 2.1751 10.5C2.1751 7.59036 2.1751 7.33735 2.1751 6.1988C2.1751 5.18675 2.43289 4.68072 2.56178 4.30121C2.81957 3.79518 2.94846 3.41566 3.33514 3.03615C3.72182 2.65663 4.10851 2.40361 4.62408 2.27711C5.01076 2.1506 5.52633 2.0241 6.55748 1.89759C7.71752 1.89759 8.1042 1.89759 10.9399 1.89759ZM10.9399 0C7.97531 0 7.71752 0 6.55748 0C5.39744 0 4.62408 0.253013 3.97961 0.506025C3.33514 0.759037 2.69068 1.13856 2.04621 1.77109C1.40174 2.40362 1.14395 2.90964 0.757274 3.66868C0.499487 4.30121 0.370593 5.06024 0.241699 6.1988C0.241699 7.33735 0.241699 7.71687 0.241699 10.5C0.241699 13.4096 0.241699 13.6627 0.241699 14.8012C0.241699 15.9398 0.499487 16.6988 0.757274 17.3313C1.01506 17.9639 1.40174 18.5964 2.04621 19.2289C2.69068 19.8614 3.20625 20.1145 3.97961 20.494C4.62408 20.747 5.39744 20.8735 6.55748 21C7.71752 21 8.1042 21 10.9399 21C13.7755 21 14.1622 21 15.3222 21C16.4823 21 17.2556 20.747 17.9001 20.494C18.5446 20.241 19.189 19.8614 19.8335 19.2289C20.478 18.5964 20.7358 18.0904 21.1224 17.3313C21.3802 16.6988 21.5091 15.9398 21.638 14.8012C21.638 13.6627 21.638 13.2831 21.638 10.5C21.638 7.71687 21.638 7.33735 21.638 6.1988C21.638 5.06024 21.3802 4.30121 21.1224 3.66868C20.8647 3.03615 20.478 2.40362 19.8335 1.77109C19.189 1.13856 18.6735 0.885543 17.9001 0.506025C17.2556 0.253013 16.4823 0.126506 15.3222 0C14.1622 0 13.9044 0 10.9399 0Z" fill="#7635F3"/>
<path d="M10.9399 5.06024C7.84642 5.06024 5.39744 7.46386 5.39744 10.5C5.39744 13.5361 7.84642 15.9398 10.9399 15.9398C14.0333 15.9398 16.4823 13.5361 16.4823 10.5C16.4823 7.46386 14.0333 5.06024 10.9399 5.06024ZM10.9399 14.0422C9.00646 14.0422 7.33084 12.5241 7.33084 10.5C7.33084 8.60241 8.87756 6.95783 10.9399 6.95783C12.8733 6.95783 14.5489 8.4759 14.5489 10.5C14.5489 12.3976 12.8733 14.0422 10.9399 14.0422Z" fill="#7635F3"/>
<path d="M16.6112 6.1988C17.323 6.1988 17.9001 5.63241 17.9001 4.93374C17.9001 4.23506 17.323 3.66868 16.6112 3.66868C15.8993 3.66868 15.3222 4.23506 15.3222 4.93374C15.3222 5.63241 15.8993 6.1988 16.6112 6.1988Z" fill="#7635F3"/>
</svg>
