<?xml version="1.0" standalone="no"?>
<!DOCTYPE svg PUBLIC "-//W3C//DTD SVG 20010904//EN"
 "http://www.w3.org/TR/2001/REC-SVG-20010904/DTD/svg10.dtd">
<svg version="1.0" xmlns="http://www.w3.org/2000/svg"
 width="920.000000pt" height="300.000000pt" viewBox="0 0 920.000000 300.000000"
 preserveAspectRatio="xMidYMid meet">
<metadata>
Created by potrace 1.16, written by Peter Selinger 2001-2019
</metadata>
<g transform="translate(0.000000,300.000000) scale(0.100000,-0.100000)"
fill="#000000" stroke="none">
<path d="M6775 2884 c-126 -22 -267 -70 -394 -135 -831 -422 -1020 -1541 -374
-2219 205 -215 486 -366 772 -414 122 -21 360 -21 477 -1 170 29 361 101 499
188 329 206 552 525 637 915 29 133 31 392 4 537 -109 584 -559 1028 -1145
1130 -106 19 -367 18 -476 -1z m451 -159 c714 -125 1176 -844 990 -1541 -91
-337 -321 -626 -627 -784 -187 -96 -365 -140 -569 -140 -333 0 -638 127 -875
365 -141 140 -235 294 -301 490 -147 440 -30 929 301 1260 182 183 413 304
664 349 105 19 309 19 417 1z"/>
<path d="M6803 2636 c-542 -103 -933 -579 -933 -1136 0 -571 415 -1059 969
-1140 133 -20 364 -8 481 25 440 122 768 488 835 935 79 515 -180 1004 -648
1225 -159 76 -253 96 -457 101 -120 2 -198 -1 -247 -10z m383 -61 c461 -75
830 -443 904 -902 21 -127 7 -432 -19 -421 -4 2 -122 68 -263 148 -233 132
-256 147 -251 168 3 12 1 22 -5 22 -19 0 -103 83 -123 121 -11 22 -23 39 -27
39 -5 0 -49 -60 -99 -133 l-91 -133 58 -12 c39 -9 75 -25 106 -48 42 -32 47
-34 58 -18 11 15 42 -5 284 -187 l270 -203 -23 -45 c-55 -110 -175 -248 -289
-335 -424 -324 -1009 -293 -1398 72 -296 278 -413 702 -302 1090 151 526 677
864 1210 777z"/>
<path d="M7020 2373 c-24 -29 -30 -46 -28 -73 3 -34 9 -39 253 -192 287 -181
296 -184 345 -116 36 49 38 77 8 105 -52 47 -493 313 -519 313 -20 0 -37 -11
-59 -37z"/>
<path d="M6874 1993 c-125 -189 -209 -319 -227 -350 -5 -7 66 -57 201 -142
115 -72 215 -133 223 -136 10 -3 68 78 197 273 100 153 182 283 182 288 0 9
-389 256 -423 270 -13 4 -47 -41 -153 -203z"/>
<path d="M6480 1588 c-16 -22 -30 -44 -30 -47 1 -39 27 -59 257 -203 l246
-153 -242 -5 c-225 -5 -244 -6 -257 -24 -8 -11 -14 -32 -14 -48 l0 -28 525 0
525 0 0 30 c0 17 -9 39 -20 50 -19 19 -33 20 -220 20 -110 0 -200 2 -200 4 0
3 9 21 21 41 38 64 34 68 -248 244 -173 108 -266 161 -285 161 -21 0 -35 -10
-58 -42z"/>
<path d="M6389 1011 c-26 -27 -29 -36 -29 -95 l0 -66 595 0 595 0 0 50 c0 66
-22 117 -55 130 -16 6 -228 10 -551 10 l-526 0 -29 -29z"/>
<path d="M5041 2524 c-16 -20 -21 -39 -19 -61 3 -27 0 -33 -14 -33 -10 0 -18
-1 -18 -3 0 -1 -4 -17 -9 -35 l-10 -32 110 0 109 0 0 34 c0 34 -1 35 -47 38
-35 2 -48 7 -48 18 0 10 10 15 34 15 31 0 36 4 43 34 5 18 7 36 4 39 -4 3 -30
7 -59 10 -50 4 -56 2 -76 -24z"/>
<path d="M5010 1995 l0 -325 80 0 80 0 0 325 0 325 -80 0 -80 0 0 -325z"/>
<path d="M1284 2217 c-28 -8 -76 -24 -106 -36 l-55 -22 -16 -72 -16 -72 44
-70 c25 -38 62 -92 84 -120 l40 -49 -22 -15 c-115 -76 -152 -188 -102 -307
l14 -34 85 0 c48 0 86 2 86 5 0 2 -12 21 -26 42 -21 31 -25 46 -21 86 5 54 28
85 94 124 l43 25 92 -16 c78 -14 205 -16 855 -16 734 0 765 1 802 19 20 11 43
26 50 35 11 13 18 11 57 -17 l46 -32 174 -3 174 -4 0 266 0 266 -75 0 -75 0 0
-201 0 -202 -89 6 c-49 3 -102 12 -117 20 l-27 14 2 187 2 186 -80 0 -81 0 0
-160 c0 -127 -3 -167 -16 -191 -30 -60 -20 -59 -746 -59 -365 0 -687 3 -715 6
l-52 7 26 31 c39 47 63 105 63 159 0 86 -41 144 -138 192 -65 32 -179 42 -258
22z m158 -149 c41 -12 88 -58 88 -85 0 -30 -49 -99 -91 -128 l-41 -29 -35 39
c-19 22 -54 69 -78 105 -50 73 -50 73 35 96 58 16 74 16 122 2z"/>
<path d="M4500 2205 c-8 -2 -41 -7 -72 -10 l-58 -6 0 -196 0 -196 -51 6 c-28
4 -62 13 -75 22 -24 15 -24 17 -24 195 l0 180 -80 0 -80 0 0 -279 0 -279 -26
-31 c-16 -19 -39 -33 -62 -37 -20 -4 -40 -8 -44 -10 -4 -3 7 -36 24 -74 30
-67 31 -69 62 -63 115 21 184 95 201 216 6 40 10 47 24 40 9 -4 141 -9 293
-11 l277 -3 25 81 c68 214 31 357 -109 425 -41 20 -73 28 -132 30 -43 2 -85 2
-93 0z m144 -147 c55 -24 75 -93 56 -193 l-12 -65 -84 0 -84 0 0 135 0 135 50
0 c27 0 60 -5 74 -12z"/>
<path d="M2980 1515 l0 -75 80 0 80 0 0 75 0 75 -80 0 -80 0 0 -75z"/>
<path d="M3190 1515 l0 -75 80 0 80 0 0 75 0 75 -80 0 -80 0 0 -75z"/>
<path d="M3500 1515 l0 -75 80 0 80 0 0 75 0 75 -80 0 -80 0 0 -75z"/>
<path d="M1141 948 c-57 -161 -106 -299 -109 -305 -3 -10 14 -13 65 -13 l69 0
18 55 17 55 118 0 117 0 18 -55 17 -55 69 0 69 0 -48 138 c-27 75 -76 211
-108 302 l-59 165 -75 3 -74 2 -104 -292z m222 5 l36 -103 -80 0 c-45 0 -79 4
-77 8 2 5 19 54 38 110 19 56 37 98 41 94 3 -4 22 -53 42 -109z"/>
<path d="M1690 935 l0 -305 60 0 60 0 0 188 1 187 77 -187 77 -188 52 0 51 0
30 73 c17 39 51 122 76 182 l45 110 1 -182 0 -183 65 0 65 0 0 305 0 305 -72
0 -73 0 -75 -178 c-41 -97 -83 -197 -93 -221 l-20 -45 -93 220 -93 219 -70 3
-71 3 0 -306z"/>
<path d="M2470 936 l0 -306 60 0 60 0 0 115 0 115 28 0 c24 0 34 -13 91 -115
l65 -115 73 0 c40 0 73 2 73 5 0 3 -29 54 -65 114 -68 115 -74 131 -51 131 21
0 74 48 93 84 33 63 16 174 -33 217 -52 45 -84 53 -241 57 l-153 4 0 -306z
m289 170 c15 -14 21 -31 21 -62 0 -63 -31 -84 -121 -84 l-69 0 0 86 0 86 74
-4 c55 -2 80 -8 95 -22z"/>
<path d="M3220 936 l0 -306 163 0 c149 0 166 2 207 23 72 36 101 98 86 181 -7
35 -48 88 -76 98 -11 4 -7 12 17 32 60 50 67 146 16 206 -48 57 -72 64 -250
68 l-163 4 0 -306z m291 176 c15 -13 22 -30 22 -52 0 -52 -30 -70 -119 -70
l-74 0 0 70 0 70 74 0 c57 0 79 -4 97 -18z m-15 -232 c46 -18 65 -59 48 -105
-11 -28 -60 -45 -134 -45 l-70 0 0 80 0 80 64 0 c36 0 77 -5 92 -10z"/>
<path d="M3780 935 l0 -305 175 0 175 0 0 50 0 50 -115 0 -115 0 0 75 0 75
105 0 105 0 0 55 0 55 -105 0 -105 0 0 70 0 70 115 0 115 0 0 55 0 55 -175 0
-175 0 0 -305z"/>
<path d="M4230 935 l0 -305 175 0 175 0 0 50 0 50 -115 0 -115 0 0 75 0 75
105 0 105 0 0 55 0 55 -105 0 -105 0 0 70 0 70 115 0 115 0 0 55 0 55 -175 0
-175 0 0 -305z"/>
<path d="M4761 948 c-57 -161 -106 -299 -109 -305 -3 -10 14 -13 65 -13 l69 0
18 55 17 55 118 0 117 0 18 -55 17 -55 69 0 69 0 -48 138 c-27 75 -76 211
-108 302 l-59 165 -75 3 -74 2 -104 -292z m222 5 l36 -103 -80 0 c-45 0 -79 4
-77 8 2 5 19 54 38 110 19 56 37 98 41 94 3 -4 22 -53 42 -109z"/>
</g>
</svg>
