<svg width="20" height="20" viewBox="0 0 20 20" fill="none" xmlns="http://www.w3.org/2000/svg">
<path d="M9.16667 15.8333L5 15.8333C4.54167 15.8333 4.16667 15.4583 4.16667 15L4.16667 5C4.16667 4.54167 4.54167 4.16667 5 4.16667L9.16667 4.16667C9.625 4.16667 10 3.79167 10 3.33333C10 2.875 9.625 2.5 9.16667 2.5L4.16667 2.5C3.25 2.5 2.5 3.25 2.5 4.16667L2.5 15.8333C2.5 16.75 3.25 17.5 4.16667 17.5L9.16667 17.5C9.625 17.5 10 17.125 10 16.6667C10 16.2083 9.625 15.8333 9.16667 15.8333ZM9.44167 10.8333L11.0083 12.4C11.3333 12.725 11.3333 13.25 11.0083 13.575C10.6833 13.9 10.1583 13.9 9.83333 13.575L6.84167 10.5833C6.51667 10.2583 6.51667 9.73333 6.84167 9.40833L9.83333 6.41667C10.1583 6.09167 10.6833 6.09167 11.0083 6.41667C11.3333 6.74167 11.3333 7.26667 11.0083 7.59167L9.44167 9.16667L16.6667 9.16667C17.125 9.16667 17.5 9.54167 17.5 10C17.5 10.4583 17.125 10.8333 16.6667 10.8333L9.44167 10.8333Z" fill="#7635F3"/>
</svg>
