<svg width="250" height="273" viewBox="0 0 250 273" fill="none" xmlns="http://www.w3.org/2000/svg">
<circle opacity="0.2" cx="124.5" cy="131.5" r="88.5" fill="#7635F3"/>
<path d="M225.882 29.2812L227.184 33.4823C227.381 34.1198 227.88 34.6191 228.518 34.8162L232.719 36.118C233.094 36.2338 233.094 36.7652 232.719 36.882L228.518 38.1837C227.88 38.3809 227.381 38.8802 227.184 39.5177L225.882 43.7188C225.766 44.0938 225.235 44.0938 225.118 43.7188L223.816 39.5177C223.619 38.8802 223.12 38.3809 222.482 38.1837L218.281 36.882C217.906 36.7662 217.906 36.2348 218.281 36.118L222.482 34.8162C223.12 34.6191 223.619 34.1198 223.816 33.4823L225.118 29.2812C225.235 28.9063 225.766 28.9063 225.882 29.2812Z" fill="#7635F3"/>
<path d="M68.4074 60.2812L69.796 64.4823C70.0063 65.1198 70.5388 65.6191 71.2188 65.8162L75.7 67.118C76.1 67.2338 76.1 67.7652 75.7 67.882L71.2188 69.1837C70.5388 69.3809 70.0063 69.8802 69.796 70.5177L68.4074 74.7188C68.284 75.0938 67.7172 75.0938 67.5926 74.7188L66.204 70.5177C65.9937 69.8802 65.4612 69.3809 64.7812 69.1837L60.3 67.882C59.9 67.7662 59.9 67.2348 60.3 67.118L64.7812 65.8162C65.4612 65.6191 65.9937 65.1198 66.204 64.4823L67.5926 60.2812C67.7172 59.9063 68.284 59.9063 68.4074 60.2812Z" fill="#7635F3"/>
<path d="M192.103 74.4681L192.78 78.735C192.882 79.3825 193.298 79.9379 193.89 80.2189L197.792 82.0732C198.14 82.2382 198.066 82.7549 197.685 82.8159L193.418 83.493C192.77 83.5954 192.215 84.0108 191.934 84.603L190.08 88.5053C189.915 88.8537 189.398 88.7792 189.337 88.3983L188.66 84.1312C188.558 83.4838 188.142 82.9284 187.55 82.6474L183.648 80.7932C183.299 80.6281 183.374 80.1114 183.755 80.0504L188.022 79.3733C188.669 79.2709 189.225 78.8554 189.506 78.2632L191.36 74.361C191.526 74.0128 192.043 74.0872 192.103 74.4681Z" fill="#7635F3"/>
<path d="M9.2037 117.15L9.898 119.391C10.0031 119.731 10.2694 119.997 10.6094 120.102L12.85 120.796C13.05 120.858 13.05 121.141 12.85 121.204L10.6094 121.898C10.2694 122.003 10.0031 122.269 9.898 122.609L9.2037 124.85C9.14199 125.05 8.85859 125.05 8.7963 124.85L8.102 122.609C7.99686 122.269 7.73058 122.003 7.39058 121.898L5.15 121.204C4.95 121.142 4.95 120.859 5.15 120.796L7.39058 120.102C7.73058 119.997 7.99686 119.731 8.102 119.391L8.7963 117.15C8.85859 116.95 9.14199 116.95 9.2037 117.15Z" fill="#7635F3"/>
<path opacity="0.4" d="M232.187 92.5437L234.531 100.666C234.886 101.898 235.784 102.864 236.932 103.245L244.494 105.762C245.169 105.985 245.169 107.013 244.494 107.238L236.932 109.755C235.784 110.136 234.886 111.102 234.531 112.334L232.187 120.456C231.979 121.181 231.023 121.181 230.813 120.456L228.469 112.334C228.114 111.102 227.216 110.136 226.068 109.755L218.506 107.238C217.831 107.015 217.831 105.987 218.506 105.762L226.068 103.245C227.216 102.864 228.114 101.898 228.469 100.666L230.813 92.5437C231.023 91.8188 231.979 91.8188 232.187 92.5437Z" fill="#7635F3"/>
<path opacity="0.4" d="M83.1875 0.50625L85.5307 8.06816C85.8856 9.21566 86.7843 10.1144 87.9318 10.4692L95.4938 12.8125C96.1688 13.0208 96.1688 13.9773 95.4938 14.1875L87.9318 16.5307C86.7843 16.8856 85.8856 17.7843 85.5307 18.9318L83.1875 26.4937C82.9792 27.1688 82.0227 27.1688 81.8125 26.4937L79.4693 18.9318C79.1144 17.7843 78.2157 16.8856 77.0682 16.5307L69.5062 14.1875C68.8313 13.9792 68.8313 13.0227 69.5062 12.8125L77.0682 10.4692C78.2157 10.1144 79.1144 9.21566 79.4693 8.06816L81.8125 0.50625C82.0227 -0.16875 82.9792 -0.16875 83.1875 0.50625Z" fill="#7635F3"/>
<ellipse opacity="0.3" cx="149" cy="55.5" rx="5" ry="4.5" fill="#7635F3"/>
<ellipse opacity="0.3" cx="12" cy="107" rx="5" ry="4" fill="#7635F3"/>
<path d="M83.3334 168.5H125C127.292 168.5 129.167 170.375 129.167 172.667C129.167 174.958 127.292 176.833 125 176.833H83.3334C81.0417 176.833 79.1667 174.958 79.1667 172.667C79.1667 170.375 81.0417 168.5 83.3334 168.5ZM96.8334 114.625L108.625 102.833L161.667 155.875C164.917 159.125 164.917 164.417 161.667 167.667C158.417 170.917 153.125 170.917 149.875 167.667L96.8334 114.625ZM132.208 91.0417L144 102.833C147.25 106.083 147.25 111.375 144 114.625L138.083 120.542L114.542 96.9584L120.417 91.0834C123.667 87.7917 128.958 87.7917 132.208 91.0417ZM90.9584 120.5L114.542 144.083L108.667 149.958C105.417 153.208 100.125 153.208 96.875 149.958L85.0834 138.167C81.8334 134.917 81.8334 129.625 85.0834 126.375L90.9584 120.5Z" fill="#7635F3"/>
<path d="M1.85413 258.184V246.808H3.91813V258.184H1.85413ZM1.68613 261.04C1.68613 261.024 1.68613 261.008 1.68613 260.992C1.71813 260.192 2.14213 259.792 2.95813 259.792C3.80613 259.792 4.23013 260.208 4.23013 261.04C4.23013 261.888 3.80613 262.312 2.95813 262.312C2.11013 262.312 1.68613 261.888 1.68613 261.04ZM13.6449 251.368C12.8609 251.368 12.4689 250.968 12.4689 250.168C12.4689 249.384 12.8609 248.992 13.6449 248.992C14.4129 248.992 14.7969 249.384 14.7969 250.168C14.7969 250.968 14.4129 251.368 13.6449 251.368ZM19.9329 260.704C19.9329 262.544 19.2929 264.008 18.0129 265.096C16.8769 266.072 15.4209 266.56 13.6449 266.56C11.5649 266.56 9.94888 265.824 8.79688 264.352C7.91688 263.216 7.47688 261.872 7.47688 260.32C7.47688 258.976 7.81288 257.824 8.48488 256.864L10.4769 256.432C9.75688 257.568 9.39688 258.792 9.39688 260.104C9.39688 261.448 9.81288 262.552 10.6449 263.416C11.4289 264.216 12.4289 264.616 13.6449 264.616C15.0529 264.616 16.1409 264.208 16.9089 263.392C17.5489 262.704 17.8689 261.808 17.8689 260.704V252.688L19.9329 251.584V260.704ZM30.7979 247.144C30.2379 247.976 29.6459 248.392 29.0219 248.392C28.6539 248.392 28.1979 248.224 27.6539 247.888C27.2539 247.632 26.9579 247.504 26.7659 247.504C26.4939 247.504 26.1579 247.76 25.7579 248.272L24.9659 247.672C25.5419 246.856 26.1419 246.448 26.7659 246.448C27.0859 246.448 27.5019 246.608 28.0139 246.928C28.4299 247.184 28.7579 247.312 28.9979 247.312C29.2539 247.312 29.6059 247.056 30.0539 246.544L30.7979 247.144ZM33.1499 247.624L35.2379 246.52V257.464C35.2379 258.888 34.8139 260.016 33.9659 260.848C33.1659 261.616 32.1179 262 30.8219 262H22.5659L23.5739 260.056H27.0779V250.744L29.1419 249.64V260.056H30.6539C32.3179 260.056 33.1499 259.184 33.1499 257.44V247.624ZM39.5506 262V247.624L41.6146 246.52V262H39.5506ZM65.3752 262C65.2152 263.408 64.4472 264.536 63.0712 265.384C61.7912 266.168 60.1592 266.56 58.1752 266.56C55.6472 266.56 53.7432 265.824 52.4632 264.352C51.5192 263.264 51.0472 261.92 51.0472 260.32C51.0472 258.976 51.3832 257.824 52.0552 256.864L54.0472 256.432C53.3272 257.568 52.9672 258.792 52.9672 260.104C52.9672 261.528 53.4312 262.648 54.3592 263.464C55.2712 264.28 56.5432 264.688 58.1752 264.688C59.5512 264.688 60.6872 264.448 61.5832 263.968C62.4792 263.488 63.0232 262.832 63.2152 262H60.8152L61.8232 260.056H65.4472V262H65.3752ZM66.8743 248.848C66.0903 248.848 65.6982 248.448 65.6982 247.648C65.6982 246.864 66.0903 246.472 66.8743 246.472C67.6423 246.472 68.0263 246.864 68.0263 247.648C68.0263 248.448 67.6423 248.848 66.8743 248.848ZM69.9463 248.848C69.1623 248.848 68.7703 248.448 68.7703 247.648C68.7703 246.864 69.1623 246.472 69.9463 246.472C70.7143 246.472 71.0983 246.864 71.0983 247.648C71.0983 248.448 70.7143 248.848 69.9463 248.848ZM72.5383 260.056H74.1223V262H72.2983C70.9703 262 69.9223 261.576 69.1543 260.728C68.3863 261.576 67.3383 262 66.0103 262H64.1862V260.056H65.7703C67.3383 260.056 68.1223 259.256 68.1223 257.656V252.688L70.1863 251.584V257.656C70.1863 259.256 70.9703 260.056 72.5383 260.056ZM72.6706 262V260.056H75.9586C79.2066 260.056 81.7746 258.984 83.6626 256.84C82.3346 254.392 80.7186 253.168 78.8146 253.168C77.5186 253.168 76.1826 253.856 74.8066 255.232V253.312C76.1506 251.952 77.5746 251.272 79.0786 251.272C80.3106 251.272 81.5026 251.72 82.6546 252.616C83.8066 253.496 84.8226 254.76 85.7026 256.408V257.464C83.3506 260.488 80.0946 262 75.9346 262H72.6706ZM97.1716 248.44C96.3876 248.44 95.9956 248.04 95.9956 247.24C95.9956 246.456 96.3876 246.064 97.1716 246.064C97.9396 246.064 98.3236 246.456 98.3236 247.24C98.3236 248.04 97.9396 248.44 97.1716 248.44ZM100.244 248.44C99.4596 248.44 99.0676 248.04 99.0676 247.24C99.0676 246.456 99.4596 246.064 100.244 246.064C101.012 246.064 101.396 246.456 101.396 247.24C101.396 248.04 101.012 248.44 100.244 248.44ZM98.7316 262C97.2756 262 96.1396 261.512 95.3236 260.536C94.6196 259.688 94.2676 258.608 94.2676 257.296C94.2676 255.872 94.6596 254.64 95.4436 253.6C96.2436 252.544 97.3796 251.768 98.8516 251.272C100.404 251.8 101.572 252.632 102.356 253.768C103.06 254.776 103.412 255.952 103.412 257.296C103.412 258.816 102.964 260.008 102.068 260.872C101.268 261.624 100.236 262 98.9716 262H98.7316ZM98.6596 260.056H99.0196C99.7396 260.056 100.308 259.808 100.724 259.312C101.156 258.816 101.372 258.152 101.372 257.32C101.372 255.4 100.532 254.024 98.8516 253.192C97.1716 254.024 96.3316 255.392 96.3316 257.296C96.3316 258.144 96.5396 258.816 96.9556 259.312C97.3716 259.808 97.9396 260.056 98.6596 260.056ZM105.271 262L106.279 260.056H110.551C111.191 260.056 111.639 259.896 111.895 259.576C112.167 259.256 112.303 258.704 112.303 257.92C112.303 255.792 111.319 254.192 109.351 253.12L110.407 251.344C112.919 252.816 114.231 254.848 114.343 257.44C114.375 258.368 114.583 259.04 114.967 259.456C115.367 259.856 115.999 260.056 116.863 260.056H118.279V262H116.695C115.367 262 114.327 261.576 113.575 260.728C113.047 261.576 112.159 262 110.911 262H105.271ZM116.85 262V260.056H118.434C120.002 260.056 120.786 259.256 120.786 257.656V252.688L122.85 251.584V257.728C122.85 259.088 122.442 260.16 121.626 260.944C120.874 261.648 119.89 262 118.674 262H116.85ZM118.122 266.776C117.338 266.776 116.946 266.376 116.946 265.576C116.946 264.792 117.338 264.4 118.122 264.4C118.89 264.4 119.274 264.792 119.274 265.576C119.274 266.376 118.89 266.776 118.122 266.776ZM121.17 266.776C120.386 266.776 119.994 266.376 119.994 265.576C119.994 264.792 120.386 264.4 121.17 264.4C121.938 264.4 122.322 264.792 122.322 265.576C122.322 266.376 121.938 266.776 121.17 266.776ZM127.16 262V247.624L129.224 246.52V262H127.16ZM137.265 248.68C136.481 248.68 136.089 248.28 136.089 247.48C136.089 246.696 136.481 246.304 137.265 246.304C138.033 246.304 138.417 246.696 138.417 247.48C138.417 248.28 138.033 248.68 137.265 248.68ZM140.985 260.056H142.569V262H140.745C139.929 262 139.225 261.84 138.633 261.52C138.489 263.104 137.937 264.368 136.977 265.312C136.097 266.176 134.993 266.608 133.665 266.608C132.705 266.608 131.769 266.368 130.857 265.888V264.088C131.673 264.536 132.489 264.76 133.305 264.76C134.329 264.76 135.129 264.416 135.705 263.728C136.281 263.04 136.569 262.088 136.569 260.872V252.688L138.633 251.584V251.608L138.657 251.584V258.136C138.801 259.416 139.577 260.056 140.985 260.056ZM156.588 260.056H158.196V262H156.372C155.044 262 153.996 261.576 153.228 260.728C152.412 261.896 151.22 262.48 149.652 262.48C148.084 262.48 146.9 261.904 146.1 260.752C145.348 261.584 144.3 262 142.956 262H141.132V260.056H142.716C144.284 260.056 145.068 259.256 145.068 257.656V256.864C145.068 255.008 145.524 253.584 146.436 252.592C147.236 251.712 148.308 251.272 149.652 251.272C151.188 251.272 152.372 251.84 153.204 252.976C153.908 253.952 154.26 255.248 154.26 256.864V257.656C154.26 259.256 155.036 260.056 156.588 260.056ZM149.652 260.536C150.436 260.536 151.052 260.208 151.5 259.552C151.964 258.896 152.196 257.992 152.196 256.84C152.196 254.408 151.348 253.192 149.652 253.192C147.972 253.192 147.132 254.408 147.132 256.84C147.132 259.304 147.972 260.536 149.652 260.536ZM156.764 262V260.056H158.036C159.7 260.056 160.532 259.184 160.532 257.44V247.624L162.62 246.52V257.464C162.62 258.888 162.196 260.016 161.348 260.848C160.548 261.616 159.5 262 158.204 262H156.764ZM171.109 262C169.717 262 168.645 261.552 167.893 260.656C167.253 259.888 166.933 258.912 166.933 257.728V247.624L168.997 246.52V257.656C168.997 259.256 169.781 260.056 171.349 260.056H172.933V262H171.109ZM171.483 262V260.056H173.067C174.635 260.056 175.419 259.256 175.419 257.656V252.688L177.483 251.584V257.728C177.483 259.088 177.075 260.16 176.259 260.944C175.507 261.648 174.523 262 173.307 262H171.483ZM175.347 266.776C174.563 266.776 174.171 266.376 174.171 265.576C174.171 264.792 174.563 264.4 175.347 264.4C176.115 264.4 176.499 264.792 176.499 265.576C176.499 266.376 176.115 266.776 175.347 266.776ZM199.778 260.056H201.386V262H199.562C198.266 262 197.234 261.6 196.466 260.8C195.714 261.568 194.65 261.968 193.274 262H190.13C188.562 262 187.778 262.8 187.778 264.4V268.456L185.714 269.56V264.328C185.714 263 186.098 261.952 186.866 261.184C187.554 260.48 188.466 260.104 189.602 260.056C189.026 259.128 188.738 257.992 188.738 256.648C188.738 254.904 189.194 253.544 190.106 252.568C190.922 251.704 191.994 251.272 193.322 251.272C194.682 251.272 195.73 251.696 196.466 252.544C197.122 253.296 197.45 254.28 197.45 255.496V257.656C197.45 259.256 198.226 260.056 199.778 260.056ZM195.386 257.824V255.592C195.386 253.992 194.698 253.192 193.322 253.192C192.522 253.192 191.898 253.496 191.45 254.104C191.018 254.696 190.802 255.528 190.802 256.6C190.802 257.688 191.01 258.536 191.426 259.144C191.842 259.752 192.426 260.056 193.178 260.056C194.65 260.056 195.386 259.312 195.386 257.824ZM205.888 248.848C205.104 248.848 204.712 248.448 204.712 247.648C204.712 246.864 205.104 246.472 205.888 246.472C206.656 246.472 207.04 246.864 207.04 247.648C207.04 248.448 206.656 248.848 205.888 248.848ZM208.936 248.848C208.152 248.848 207.76 248.448 207.76 247.648C207.76 246.864 208.152 246.472 208.936 246.472C209.704 246.472 210.088 246.864 210.088 247.648C210.088 248.448 209.704 248.848 208.936 248.848ZM210.424 260.056H214.888V262H209.032C208.408 262 207.864 261.944 207.4 261.832C206.952 261.944 206.408 262 205.768 262H199.936V260.056H204.4C203.408 258.92 202.912 257.664 202.912 256.288C202.912 254.72 203.352 253.472 204.232 252.544C205.032 251.696 206.088 251.272 207.4 251.272C208.904 251.272 210.064 251.816 210.88 252.904C211.568 253.8 211.912 254.928 211.912 256.288C211.912 257.664 211.416 258.92 210.424 260.056ZM207.424 259.84C208.16 259.584 208.76 259.12 209.224 258.448C209.688 257.76 209.92 257.008 209.92 256.192C209.92 255.264 209.688 254.536 209.224 254.008C208.776 253.464 208.168 253.192 207.4 253.192C206.632 253.192 206.016 253.464 205.552 254.008C205.104 254.552 204.88 255.28 204.88 256.192C204.88 256.992 205.12 257.736 205.6 258.424C206.08 259.112 206.688 259.584 207.424 259.84ZM215.308 248.68C214.524 248.68 214.132 248.28 214.132 247.48C214.132 246.696 214.524 246.304 215.308 246.304C216.076 246.304 216.46 246.696 216.46 247.48C216.46 248.28 216.076 248.68 215.308 248.68ZM218.356 248.68C217.572 248.68 217.18 248.28 217.18 247.48C217.18 246.696 217.572 246.304 218.356 246.304C219.124 246.304 219.508 246.696 219.508 247.48C219.508 248.28 219.124 248.68 218.356 248.68ZM213.46 262V260.056H215.044C216.612 260.056 217.396 259.256 217.396 257.656V252.688L219.46 251.584V257.728C219.46 259.088 219.052 260.16 218.236 260.944C217.484 261.648 216.5 262 215.284 262H213.46ZM241.755 260.056H243.363V262H241.539C240.243 262 239.211 261.6 238.443 260.8C237.691 261.568 236.627 261.968 235.251 262H232.107C230.539 262 229.755 262.8 229.755 264.4V268.456L227.691 269.56V264.328C227.691 263 228.075 261.952 228.843 261.184C229.531 260.48 230.443 260.104 231.579 260.056C231.003 259.128 230.715 257.992 230.715 256.648C230.715 254.904 231.171 253.544 232.083 252.568C232.899 251.704 233.971 251.272 235.299 251.272C236.659 251.272 237.707 251.696 238.443 252.544C239.099 253.296 239.427 254.28 239.427 255.496V257.656C239.427 259.256 240.203 260.056 241.755 260.056ZM237.363 257.824V255.592C237.363 253.992 236.675 253.192 235.299 253.192C234.499 253.192 233.875 253.496 233.427 254.104C232.995 254.696 232.779 255.528 232.779 256.6C232.779 257.688 232.987 258.536 233.403 259.144C233.819 259.752 234.403 260.056 235.155 260.056C236.627 260.056 237.363 259.312 237.363 257.824ZM241.913 262V260.056H243.185C244.849 260.056 245.681 259.184 245.681 257.44V247.624L247.769 246.52V257.464C247.769 258.888 247.345 260.016 246.497 260.848C245.697 261.616 244.649 262 243.353 262H241.913Z" fill="#3C3C3C"/>
</svg>
