<svg width="240" height="273" viewBox="0 0 240 273" fill="none" xmlns="http://www.w3.org/2000/svg">
<circle opacity="0.2" cx="119.5" cy="131.5" r="88.5" fill="#7635F3"/>
<path d="M99.1667 156C94.5834 156 90.8751 159.75 90.8751 164.333C90.8751 168.917 94.5834 172.667 99.1667 172.667C103.75 172.667 107.5 168.917 107.5 164.333C107.5 159.75 103.75 156 99.1667 156ZM74.1667 93.5C74.1667 95.7917 76.0417 97.6667 78.3334 97.6667H82.5001L97.5001 129.292L91.8751 139.458C88.8334 145.042 92.8334 151.833 99.1667 151.833H145C147.292 151.833 149.167 149.958 149.167 147.667C149.167 145.375 147.292 143.5 145 143.5H99.1667L103.75 135.167H134.792C137.917 135.167 140.667 133.458 142.083 130.875L157 103.833C158.542 101.083 156.542 97.6667 153.375 97.6667H91.7084L88.9167 91.7083C88.2501 90.25 86.7501 89.3333 85.1667 89.3333H78.3334C76.0417 89.3333 74.1667 91.2083 74.1667 93.5ZM140.833 156C136.25 156 132.542 159.75 132.542 164.333C132.542 168.917 136.25 172.667 140.833 172.667C145.417 172.667 149.167 168.917 149.167 164.333C149.167 159.75 145.417 156 140.833 156Z" fill="#7635F3"/>
<path d="M220.882 29.2812L222.184 33.4823C222.381 34.1198 222.88 34.6191 223.518 34.8162L227.719 36.118C228.094 36.2338 228.094 36.7652 227.719 36.882L223.518 38.1837C222.88 38.3809 222.381 38.8802 222.184 39.5177L220.882 43.7188C220.766 44.0938 220.235 44.0938 220.118 43.7188L218.816 39.5177C218.619 38.8802 218.12 38.3809 217.482 38.1837L213.281 36.882C212.906 36.7662 212.906 36.2348 213.281 36.118L217.482 34.8162C218.12 34.6191 218.619 34.1198 218.816 33.4823L220.118 29.2812C220.235 28.9063 220.766 28.9063 220.882 29.2812Z" fill="#7635F3"/>
<path d="M63.4074 60.2812L64.796 64.4823C65.0063 65.1198 65.5388 65.6191 66.2188 65.8162L70.7 67.118C71.1 67.2338 71.1 67.7652 70.7 67.882L66.2188 69.1837C65.5388 69.3809 65.0063 69.8802 64.796 70.5177L63.4074 74.7188C63.284 75.0938 62.7172 75.0938 62.5926 74.7188L61.204 70.5177C60.9937 69.8802 60.4612 69.3809 59.7812 69.1837L55.3 67.882C54.9 67.7662 54.9 67.2348 55.3 67.118L59.7812 65.8162C60.4612 65.6191 60.9937 65.1198 61.204 64.4823L62.5926 60.2812C62.7172 59.9063 63.284 59.9063 63.4074 60.2812Z" fill="#7635F3"/>
<path d="M187.103 74.4681L187.78 78.735C187.882 79.3825 188.298 79.9379 188.89 80.2189L192.792 82.0732C193.14 82.2382 193.066 82.7549 192.685 82.8159L188.418 83.493C187.77 83.5954 187.215 84.0108 186.934 84.603L185.08 88.5053C184.915 88.8537 184.398 88.7792 184.337 88.3983L183.66 84.1312C183.558 83.4838 183.142 82.9284 182.55 82.6474L178.648 80.7932C178.299 80.6281 178.374 80.1114 178.755 80.0504L183.022 79.3733C183.669 79.2709 184.225 78.8554 184.506 78.2632L186.36 74.361C186.526 74.0128 187.043 74.0872 187.103 74.4681Z" fill="#7635F3"/>
<path d="M4.2037 117.15L4.898 119.391C5.00314 119.731 5.26942 119.997 5.60942 120.102L7.85 120.796C8.05 120.858 8.05 121.141 7.85 121.204L5.60942 121.898C5.26942 122.003 5.00314 122.269 4.898 122.609L4.2037 124.85C4.14199 125.05 3.85859 125.05 3.7963 124.85L3.102 122.609C2.99686 122.269 2.73058 122.003 2.39058 121.898L0.15 121.204C-0.0499999 121.142 -0.0499999 120.859 0.15 120.796L2.39058 120.102C2.73058 119.997 2.99686 119.731 3.102 119.391L3.7963 117.15C3.85859 116.95 4.14199 116.95 4.2037 117.15Z" fill="#7635F3"/>
<path opacity="0.4" d="M227.187 92.5437L229.531 100.666C229.886 101.898 230.784 102.864 231.932 103.245L239.494 105.762C240.169 105.985 240.169 107.013 239.494 107.238L231.932 109.755C230.784 110.136 229.886 111.102 229.531 112.334L227.187 120.456C226.979 121.181 226.023 121.181 225.813 120.456L223.469 112.334C223.114 111.102 222.216 110.136 221.068 109.755L213.506 107.238C212.831 107.015 212.831 105.987 213.506 105.762L221.068 103.245C222.216 102.864 223.114 101.898 223.469 100.666L225.813 92.5437C226.023 91.8188 226.979 91.8188 227.187 92.5437Z" fill="#7635F3"/>
<path opacity="0.4" d="M78.1875 0.50625L80.5307 8.06816C80.8856 9.21566 81.7843 10.1144 82.9318 10.4692L90.4938 12.8125C91.1688 13.0208 91.1688 13.9773 90.4938 14.1875L82.9318 16.5307C81.7843 16.8856 80.8856 17.7843 80.5307 18.9318L78.1875 26.4937C77.9792 27.1688 77.0227 27.1688 76.8125 26.4937L74.4693 18.9318C74.1144 17.7843 73.2157 16.8856 72.0682 16.5307L64.5062 14.1875C63.8313 13.9792 63.8313 13.0227 64.5062 12.8125L72.0682 10.4692C73.2157 10.1144 74.1144 9.21566 74.4693 8.06816L76.8125 0.50625C77.0227 -0.16875 77.9792 -0.16875 78.1875 0.50625Z" fill="#7635F3"/>
<ellipse opacity="0.3" cx="144" cy="55.5" rx="5" ry="4.5" fill="#7635F3"/>
<ellipse opacity="0.3" cx="7" cy="107" rx="5" ry="4" fill="#7635F3"/>
<path d="M36.1189 242.016L36.8389 240.456L41.9509 239.544L41.2309 241.08L36.1189 242.016ZM35.7109 244.44L36.4309 242.904L41.5669 241.968L40.8469 243.504L35.7109 244.44ZM41.5782 262C40.1862 262 39.1142 261.552 38.3622 260.656C37.7222 259.888 37.4022 258.912 37.4022 257.728V247.624L39.4662 246.52V257.656C39.4662 259.256 40.2502 260.056 41.8182 260.056H43.4022V262H41.5782ZM50.3039 260.056H51.8879V262H50.0639C48.7359 262 47.6879 261.576 46.9199 260.728C46.1519 261.576 45.1039 262 43.7759 262H41.9519V260.056H43.5359C45.1039 260.056 45.8879 259.256 45.8879 257.656V252.688L47.9519 251.584V257.656C47.9519 259.256 48.7359 260.056 50.3039 260.056ZM44.5679 264.4C45.3359 264.4 45.7199 264.8 45.7199 265.6C45.7199 266.384 45.3359 266.776 44.5679 266.776C43.7839 266.776 43.3919 266.384 43.3919 265.6C43.3919 264.8 43.7839 264.4 44.5679 264.4ZM47.6159 264.4C48.3839 264.4 48.7679 264.8 48.7679 265.6C48.7679 266.384 48.3839 266.776 47.6159 266.776C46.8319 266.776 46.4399 266.384 46.4399 265.6C46.4399 264.8 46.8319 264.4 47.6159 264.4ZM50.4362 262V260.056H51.7083C53.3723 260.056 54.2043 259.184 54.2043 257.44V247.624L56.2923 246.52V257.464C56.2923 258.888 55.8683 260.016 55.0203 260.848C54.2203 261.616 53.1723 262 51.8763 262H50.4362ZM64.7813 262C63.3893 262 62.3173 261.552 61.5653 260.656C60.9253 259.888 60.6053 258.912 60.6053 257.728V247.624L62.6693 246.52V257.656C62.6693 259.256 63.4533 260.056 65.0213 260.056H66.6053V262H64.7813ZM65.155 262V260.056H68.443C71.691 260.056 74.259 258.984 76.147 256.84C74.819 254.392 73.203 253.168 71.299 253.168C70.003 253.168 68.667 253.856 67.291 255.232V253.312C68.635 251.952 70.059 251.272 71.563 251.272C72.795 251.272 73.987 251.72 75.139 252.616C76.291 253.496 77.307 254.76 78.187 256.408V257.464C75.835 260.488 72.579 262 68.419 262H65.155ZM89.248 248.44C88.464 248.44 88.072 248.04 88.072 247.24C88.072 246.456 88.464 246.064 89.248 246.064C90.016 246.064 90.4 246.456 90.4 247.24C90.4 248.04 90.016 248.44 89.248 248.44ZM92.296 248.44C91.512 248.44 91.12 248.04 91.12 247.24C91.12 246.456 91.512 246.064 92.296 246.064C93.064 246.064 93.448 246.456 93.448 247.24C93.448 248.04 93.064 248.44 92.296 248.44ZM96.76 260.056H98.344V262H96.52C94.872 262 93.688 261.392 92.968 260.176C92.2 260.912 91.248 261.28 90.112 261.28C88.704 261.28 87.584 260.752 86.752 259.696C86.064 258.8 85.72 257.704 85.72 256.408C85.72 254.856 86.192 253.608 87.136 252.664C87.936 251.848 88.912 251.44 90.064 251.44C90.944 251.44 91.704 251.664 92.344 252.112V251.08L94.432 249.976V257.656C94.432 259.256 95.208 260.056 96.76 260.056ZM92.344 254.344C91.752 253.688 91.024 253.36 90.16 253.36C89.456 253.36 88.88 253.648 88.432 254.224C87.984 254.784 87.76 255.52 87.76 256.432C87.76 257.36 87.984 258.104 88.432 258.664C88.88 259.224 89.464 259.504 90.184 259.504C91.08 259.504 91.816 259.136 92.392 258.4C92.36 258.112 92.344 257.888 92.344 257.728V254.344ZM104.665 248.68C103.881 248.68 103.489 248.28 103.489 247.48C103.489 246.696 103.881 246.304 104.665 246.304C105.433 246.304 105.817 246.696 105.817 247.48C105.817 248.28 105.433 248.68 104.665 248.68ZM109.849 260.056V262H96.9128V260.056H101.065C100.281 259.048 99.8888 257.808 99.8888 256.336C99.8888 254.704 100.449 253.408 101.569 252.448C102.481 251.68 103.537 251.288 104.737 251.272C106.433 251.272 107.753 251.952 108.697 253.312V255.256C107.673 253.88 106.433 253.192 104.977 253.192C104.065 253.192 103.329 253.488 102.769 254.08C102.225 254.656 101.953 255.432 101.953 256.408C101.953 257.512 102.281 258.4 102.937 259.072C103.609 259.728 104.497 260.056 105.601 260.056H109.849ZM116.751 260.728C116.751 262.52 116.279 263.96 115.335 265.048C114.439 266.088 113.247 266.608 111.759 266.608C110.799 266.608 109.863 266.368 108.951 265.888V264.088C109.767 264.536 110.583 264.76 111.399 264.76C112.423 264.76 113.223 264.416 113.799 263.728C114.375 263.04 114.663 262.088 114.663 260.872V252.688L116.751 251.584V260.728ZM125.25 262C123.858 262 122.786 261.552 122.034 260.656C121.394 259.888 121.074 258.912 121.074 257.728V247.624L123.138 246.52V257.656C123.138 259.256 123.922 260.056 125.49 260.056H127.074V262H125.25ZM133.448 248.824C132.664 248.824 132.272 248.424 132.272 247.624C132.272 246.84 132.664 246.448 133.448 246.448C134.216 246.448 134.6 246.84 134.6 247.624C134.6 248.424 134.216 248.824 133.448 248.824ZM125.624 262V260.056H129.944C129.208 259.24 128.84 258.104 128.84 256.648C128.84 254.904 129.296 253.544 130.208 252.568C131.008 251.704 132.072 251.272 133.4 251.272C134.76 251.272 135.816 251.696 136.568 252.544C137.208 253.296 137.528 254.28 137.528 255.496V257.776C137.512 259.104 137.12 260.152 136.352 260.92C135.6 261.64 134.6 262 133.352 262H125.624ZM135.464 255.592C135.464 253.992 134.776 253.192 133.4 253.192C132.616 253.192 132 253.496 131.552 254.104C131.104 254.696 130.88 255.528 130.88 256.6C130.88 257.656 131.096 258.496 131.528 259.12C131.96 259.744 132.536 260.056 133.256 260.056C134.728 260.056 135.464 259.288 135.464 257.752V255.592ZM149.295 248.44C148.511 248.44 148.119 248.04 148.119 247.24C148.119 246.456 148.511 246.064 149.295 246.064C150.063 246.064 150.447 246.456 150.447 247.24C150.447 248.04 150.063 248.44 149.295 248.44ZM152.343 248.44C151.559 248.44 151.167 248.04 151.167 247.24C151.167 246.456 151.559 246.064 152.343 246.064C153.111 246.064 153.495 246.456 153.495 247.24C153.495 248.04 153.111 248.44 152.343 248.44ZM156.807 260.056H158.391V262H156.567C154.919 262 153.735 261.392 153.015 260.176C152.247 260.912 151.295 261.28 150.159 261.28C148.751 261.28 147.631 260.752 146.799 259.696C146.111 258.8 145.767 257.704 145.767 256.408C145.767 254.856 146.239 253.608 147.183 252.664C147.983 251.848 148.959 251.44 150.111 251.44C150.991 251.44 151.751 251.664 152.391 252.112V251.08L154.479 249.976V257.656C154.479 259.256 155.255 260.056 156.807 260.056ZM152.391 254.344C151.799 253.688 151.071 253.36 150.207 253.36C149.503 253.36 148.927 253.648 148.479 254.224C148.031 254.784 147.807 255.52 147.807 256.432C147.807 257.36 148.031 258.104 148.479 258.664C148.927 259.224 149.511 259.504 150.231 259.504C151.127 259.504 151.863 259.136 152.439 258.4C152.407 258.112 152.391 257.888 152.391 257.728V254.344ZM165.144 260.056H166.728V262H164.904C163.528 262 162.464 261.56 161.712 260.68C160.912 261.56 159.808 262 158.4 262H156.96V260.056H158.232C159.896 260.056 160.728 259.184 160.728 257.44V247.624L162.816 246.52V257.464C162.816 258.392 162.992 259.056 163.344 259.456C163.712 259.856 164.312 260.056 165.144 260.056ZM165.28 262V260.056H167.44C168.992 260.056 169.768 259.256 169.768 257.656V254.296L171.832 253.192V257.656C171.832 259.256 172.616 260.056 174.184 260.056H175.288C176.856 260.056 177.64 259.256 177.64 257.656V253.48L179.704 252.4V257.656C179.704 259.256 180.48 260.056 182.032 260.056H183.16C184.728 260.056 185.512 259.256 185.512 257.656V252.688L187.576 251.584V257.44C187.576 259.184 188.408 260.056 190.072 260.056H192.064V262H189.904C188.464 262 187.368 261.512 186.616 260.536C185.944 261.496 184.896 261.984 183.472 262H181.816C180.408 262 179.36 261.528 178.672 260.584C177.984 261.512 176.96 261.984 175.6 262H173.944C172.568 262 171.52 261.528 170.8 260.584C170.112 261.528 169.064 262 167.656 262H165.28ZM190.616 262V260.056H191.888C193.552 260.056 194.384 259.184 194.384 257.44V247.624L196.472 246.52V257.464C196.472 258.888 196.048 260.016 195.2 260.848C194.4 261.616 193.352 262 192.056 262H190.616ZM200.785 262V247.624L202.849 246.52V262H200.785Z" fill="#292929"/>
</svg>
