<svg width="240" height="273" viewBox="0 0 240 273" fill="none" xmlns="http://www.w3.org/2000/svg">
<circle opacity="0.2" cx="119.5" cy="131.5" r="88.5" fill="#7635F3"/>
<path d="M220.882 29.2812L222.184 33.4823C222.381 34.1198 222.88 34.6191 223.518 34.8162L227.719 36.118C228.094 36.2338 228.094 36.7652 227.719 36.882L223.518 38.1837C222.88 38.3809 222.381 38.8802 222.184 39.5177L220.882 43.7188C220.766 44.0938 220.235 44.0938 220.118 43.7188L218.816 39.5177C218.619 38.8802 218.12 38.3809 217.482 38.1837L213.281 36.882C212.906 36.7662 212.906 36.2348 213.281 36.118L217.482 34.8162C218.12 34.6191 218.619 34.1198 218.816 33.4823L220.118 29.2812C220.235 28.9063 220.766 28.9063 220.882 29.2812Z" fill="#7635F3"/>
<path d="M63.4074 60.2812L64.796 64.4823C65.0063 65.1198 65.5388 65.6191 66.2188 65.8162L70.7 67.118C71.1 67.2338 71.1 67.7652 70.7 67.882L66.2188 69.1837C65.5388 69.3809 65.0063 69.8802 64.796 70.5177L63.4074 74.7188C63.284 75.0938 62.7172 75.0938 62.5926 74.7188L61.204 70.5177C60.9937 69.8802 60.4612 69.3809 59.7812 69.1837L55.3 67.882C54.9 67.7662 54.9 67.2348 55.3 67.118L59.7812 65.8162C60.4612 65.6191 60.9937 65.1198 61.204 64.4823L62.5926 60.2812C62.7172 59.9063 63.284 59.9063 63.4074 60.2812Z" fill="#7635F3"/>
<path d="M187.103 74.4681L187.78 78.735C187.882 79.3825 188.298 79.9379 188.89 80.2189L192.792 82.0732C193.14 82.2382 193.066 82.7549 192.685 82.8159L188.418 83.493C187.77 83.5954 187.215 84.0108 186.934 84.603L185.08 88.5053C184.915 88.8537 184.398 88.7792 184.337 88.3983L183.66 84.1312C183.558 83.4838 183.142 82.9284 182.55 82.6474L178.648 80.7932C178.299 80.6281 178.374 80.1114 178.755 80.0504L183.022 79.3733C183.669 79.2709 184.225 78.8554 184.506 78.2632L186.36 74.361C186.526 74.0128 187.043 74.0872 187.103 74.4681Z" fill="#7635F3"/>
<path d="M4.2037 117.15L4.898 119.391C5.00314 119.731 5.26942 119.997 5.60942 120.102L7.85 120.796C8.05 120.858 8.05 121.141 7.85 121.204L5.60942 121.898C5.26942 122.003 5.00314 122.269 4.898 122.609L4.2037 124.85C4.14199 125.05 3.85859 125.05 3.7963 124.85L3.102 122.609C2.99686 122.269 2.73058 122.003 2.39058 121.898L0.15 121.204C-0.0499999 121.142 -0.0499999 120.859 0.15 120.796L2.39058 120.102C2.73058 119.997 2.99686 119.731 3.102 119.391L3.7963 117.15C3.85859 116.95 4.14199 116.95 4.2037 117.15Z" fill="#7635F3"/>
<path opacity="0.4" d="M227.187 92.5437L229.531 100.666C229.886 101.898 230.784 102.864 231.932 103.245L239.494 105.762C240.169 105.985 240.169 107.013 239.494 107.238L231.932 109.755C230.784 110.136 229.886 111.102 229.531 112.334L227.187 120.456C226.979 121.181 226.023 121.181 225.813 120.456L223.469 112.334C223.114 111.102 222.216 110.136 221.068 109.755L213.506 107.238C212.831 107.015 212.831 105.987 213.506 105.762L221.068 103.245C222.216 102.864 223.114 101.898 223.469 100.666L225.813 92.5437C226.023 91.8188 226.979 91.8188 227.187 92.5437Z" fill="#7635F3"/>
<path opacity="0.4" d="M78.1875 0.50625L80.5307 8.06816C80.8856 9.21566 81.7843 10.1144 82.9318 10.4692L90.4938 12.8125C91.1688 13.0208 91.1688 13.9773 90.4938 14.1875L82.9318 16.5307C81.7843 16.8856 80.8856 17.7843 80.5307 18.9318L78.1875 26.4937C77.9792 27.1688 77.0227 27.1688 76.8125 26.4937L74.4693 18.9318C74.1144 17.7843 73.2157 16.8856 72.0682 16.5307L64.5062 14.1875C63.8313 13.9792 63.8313 13.0227 64.5062 12.8125L72.0682 10.4692C73.2157 10.1144 74.1144 9.21566 74.4693 8.06816L76.8125 0.50625C77.0227 -0.16875 77.9792 -0.16875 78.1875 0.50625Z" fill="#7635F3"/>
<ellipse opacity="0.3" cx="144" cy="55.5" rx="5" ry="4.5" fill="#7635F3"/>
<ellipse opacity="0.3" cx="7" cy="107" rx="5" ry="4" fill="#7635F3"/>
<path d="M125.625 164.875C122.458 167.75 117.583 167.75 114.417 164.833L113.958 164.417C92.0832 144.625 77.7916 131.667 78.3332 115.5C78.5832 108.417 82.2082 101.625 88.0832 97.625C99.0832 90.125 112.667 93.625 120 102.208C127.333 93.625 140.917 90.0834 151.917 97.625C157.792 101.625 161.417 108.417 161.667 115.5C162.25 131.667 147.917 144.625 126.042 164.5L125.625 164.875Z" fill="#7635F3"/>
<path d="M6.42378 248.44C5.63978 248.44 5.24778 248.04 5.24778 247.24C5.24778 246.456 5.63978 246.064 6.42378 246.064C7.19178 246.064 7.57578 246.456 7.57578 247.24C7.57578 248.04 7.19178 248.44 6.42378 248.44ZM9.47178 248.44C8.68778 248.44 8.29578 248.04 8.29578 247.24C8.29578 246.456 8.68778 246.064 9.47178 246.064C10.2398 246.064 10.6238 246.456 10.6238 247.24C10.6238 248.04 10.2398 248.44 9.47178 248.44ZM13.9358 260.056H15.5198V262H13.6958C12.0478 262 10.8638 261.392 10.1438 260.176C9.37578 260.912 8.42378 261.28 7.28778 261.28C5.87978 261.28 4.75978 260.752 3.92778 259.696C3.23978 258.8 2.89578 257.704 2.89578 256.408C2.89578 254.856 3.36778 253.608 4.31178 252.664C5.11178 251.848 6.08778 251.44 7.23978 251.44C8.11978 251.44 8.87978 251.664 9.51978 252.112V251.08L11.6078 249.976V257.656C11.6078 259.256 12.3838 260.056 13.9358 260.056ZM9.51978 254.344C8.92778 253.688 8.19978 253.36 7.33578 253.36C6.63178 253.36 6.05578 253.648 5.60778 254.224C5.15978 254.784 4.93578 255.52 4.93578 256.432C4.93578 257.36 5.15978 258.104 5.60778 258.664C6.05578 259.224 6.63978 259.504 7.35978 259.504C8.25578 259.504 8.99178 259.136 9.56778 258.4C9.53578 258.112 9.51978 257.888 9.51978 257.728V254.344ZM22.2726 260.056H23.8566V262H22.0326C20.6566 262 19.5926 261.56 18.8406 260.68C18.0406 261.56 16.9366 262 15.5286 262H14.0886V260.056H15.3606C17.0246 260.056 17.8566 259.184 17.8566 257.44V247.624L19.9446 246.52V257.464C19.9446 258.392 20.1206 259.056 20.4726 259.456C20.8406 259.856 21.4406 260.056 22.2726 260.056ZM39.3049 248.68C38.5209 248.68 38.1289 248.28 38.1289 247.48C38.1289 246.696 38.5209 246.304 39.3049 246.304C40.0729 246.304 40.4569 246.696 40.4569 247.48C40.4569 248.28 40.0729 248.68 39.3049 248.68ZM46.9849 260.056H48.5689V262H46.7449C45.4009 262 44.3529 261.584 43.6009 260.752C42.8489 261.584 41.8009 262 40.4569 262H30.5209C29.1929 262 28.1449 261.576 27.3769 260.728C26.6089 261.576 25.5609 262 24.2329 262H22.4089V260.056H23.9929C25.5609 260.056 26.3449 259.256 26.3449 257.656V254.296L28.4089 253.192V257.656C28.4089 259 28.9289 259.776 29.9689 259.984C30.6089 257.568 31.6649 255.552 33.1369 253.936C34.7849 252.16 36.7049 251.272 38.8969 251.272C40.7209 251.272 42.1769 251.904 43.2649 253.168C44.1769 254.24 44.6329 255.56 44.6329 257.128V257.704C44.6329 259.272 45.4169 260.056 46.9849 260.056ZM40.3369 260.056C41.8249 260.056 42.5689 259.224 42.5689 257.56V257.128C42.5689 255.88 42.1849 254.888 41.4169 254.152C40.7449 253.512 39.9129 253.192 38.9209 253.192C37.2249 253.192 35.6969 253.976 34.3369 255.544C33.2969 256.744 32.4969 258.248 31.9369 260.056H40.3369ZM54.6475 248.824C53.8635 248.824 53.4715 248.424 53.4715 247.624C53.4715 246.84 53.8635 246.448 54.6475 246.448C55.4155 246.448 55.7995 246.84 55.7995 247.624C55.7995 248.424 55.4155 248.824 54.6475 248.824ZM57.6235 260.056H62.0875V262H56.2315C55.6075 262 55.0635 261.944 54.5995 261.832C54.1515 261.944 53.6075 262 52.9675 262H47.1355V260.056H51.5995C50.6075 258.92 50.1115 257.664 50.1115 256.288C50.1115 254.72 50.5515 253.472 51.4315 252.544C52.2315 251.696 53.2875 251.272 54.5995 251.272C56.1035 251.272 57.2635 251.816 58.0795 252.904C58.7675 253.8 59.1115 254.928 59.1115 256.288C59.1115 257.664 58.6155 258.92 57.6235 260.056ZM54.6235 259.84C55.3595 259.584 55.9595 259.12 56.4235 258.448C56.8875 257.76 57.1195 257.008 57.1195 256.192C57.1195 255.264 56.8875 254.536 56.4235 254.008C55.9755 253.464 55.3675 253.192 54.5995 253.192C53.8315 253.192 53.2155 253.464 52.7515 254.008C52.3035 254.552 52.0795 255.28 52.0795 256.192C52.0795 256.992 52.3195 257.736 52.7995 258.424C53.2795 259.112 53.8875 259.584 54.6235 259.84ZM76.1149 260.056H77.7229V262H75.8989C74.5709 262 73.5229 261.576 72.7549 260.728C71.9389 261.896 70.7469 262.48 69.1789 262.48C67.6109 262.48 66.4269 261.904 65.6269 260.752C64.8749 261.584 63.8269 262 62.4829 262H60.6589V260.056H62.2429C63.8109 260.056 64.5949 259.256 64.5949 257.656V256.864C64.5949 255.008 65.0509 253.584 65.9629 252.592C66.7629 251.712 67.8349 251.272 69.1789 251.272C70.7149 251.272 71.8989 251.84 72.7309 252.976C73.4349 253.952 73.7869 255.248 73.7869 256.864V257.656C73.7869 259.256 74.5629 260.056 76.1149 260.056ZM69.1789 260.536C69.9629 260.536 70.5789 260.208 71.0269 259.552C71.4909 258.896 71.7229 257.992 71.7229 256.84C71.7229 254.408 70.8749 253.192 69.1789 253.192C67.4989 253.192 66.6589 254.408 66.6589 256.84C66.6589 259.304 67.4989 260.536 69.1789 260.536ZM76.2917 262V260.056H77.5637C79.2277 260.056 80.0597 259.184 80.0597 257.44V247.624L82.1477 246.52V257.464C82.1477 258.888 81.7237 260.016 80.8757 260.848C80.0757 261.616 79.0277 262 77.7317 262H76.2917ZM90.6368 262C89.2448 262 88.1728 261.552 87.4208 260.656C86.7808 259.888 86.4608 258.912 86.4608 257.728V247.624L88.5248 246.52V257.656C88.5248 259.256 89.3088 260.056 90.8768 260.056H92.4608V262H90.6368ZM91.0105 262V260.056H92.5945C94.1625 260.056 94.9465 259.256 94.9465 257.656V252.688L97.0105 251.584V257.728C97.0105 259.088 96.6025 260.16 95.7865 260.944C95.0345 261.648 94.0505 262 92.8345 262H91.0105ZM94.8745 266.776C94.0905 266.776 93.6985 266.376 93.6985 265.576C93.6985 264.792 94.0905 264.4 94.8745 264.4C95.6425 264.4 96.0265 264.792 96.0265 265.576C96.0265 266.376 95.6425 266.776 94.8745 266.776ZM112.802 260.056H114.386V262H112.562C111.746 262 111.042 261.84 110.45 261.52C110.306 263.104 109.754 264.368 108.794 265.312C107.914 266.176 106.81 266.608 105.482 266.608C104.522 266.608 103.586 266.368 102.674 265.888V264.088C103.49 264.536 104.306 264.76 105.122 264.76C106.146 264.76 106.946 264.416 107.522 263.728C108.098 263.04 108.386 262.088 108.386 260.872V252.688L110.45 251.584V251.608L110.474 251.584V258.136C110.618 259.416 111.394 260.056 112.802 260.056ZM120.508 259.984C121.148 257.568 122.204 255.552 123.676 253.936C125.324 252.16 127.244 251.272 129.436 251.272C131.26 251.272 132.716 251.904 133.804 253.168C134.716 254.24 135.172 255.56 135.172 257.128V257.752C135.172 259.144 134.748 260.224 133.9 260.992C133.164 261.664 132.196 262 130.996 262H121.06C119.732 262 118.684 261.576 117.916 260.728C117.148 261.576 116.1 262 114.772 262H112.948V260.056H114.532C116.1 260.056 116.884 259.256 116.884 257.656V254.296L118.948 253.192V257.656C118.948 259 119.468 259.776 120.508 259.984ZM133.108 257.56V257.128C133.108 255.88 132.724 254.888 131.956 254.152C131.284 253.512 130.452 253.192 129.46 253.192C127.764 253.192 126.236 253.976 124.876 255.544C123.836 256.744 123.036 258.248 122.476 260.056H130.876C132.364 260.056 133.108 259.224 133.108 257.56ZM143.184 262C141.792 262 140.72 261.552 139.968 260.656C139.328 259.888 139.008 258.912 139.008 257.728V247.624L141.072 246.52V257.656C141.072 259.256 141.856 260.056 143.424 260.056H145.008V262H143.184ZM148.117 248.68C147.333 248.68 146.941 248.28 146.941 247.48C146.941 246.696 147.333 246.304 148.117 246.304C148.885 246.304 149.269 246.696 149.269 247.48C149.269 248.28 148.885 248.68 148.117 248.68ZM151.909 260.056H153.493V262H151.669C150.341 262 149.293 261.576 148.525 260.728C147.757 261.576 146.709 262 145.381 262H143.557V260.056H145.141C146.709 260.056 147.493 259.256 147.493 257.656V252.688L149.557 251.584V257.656C149.557 259.256 150.341 260.056 151.909 260.056ZM164.978 260.056V262H152.042V260.056H156.194C155.41 259.048 155.018 257.808 155.018 256.336C155.018 254.704 155.578 253.408 156.698 252.448C157.61 251.68 158.666 251.288 159.866 251.272C161.562 251.272 162.882 251.952 163.826 253.312V255.256C162.802 253.88 161.562 253.192 160.106 253.192C159.194 253.192 158.458 253.488 157.898 254.08C157.354 254.656 157.082 255.432 157.082 256.408C157.082 257.512 157.41 258.4 158.066 259.072C158.738 259.728 159.626 260.056 160.73 260.056H164.978ZM172.01 262L173.018 260.056H177.29C177.93 260.056 178.378 259.896 178.634 259.576C178.906 259.256 179.042 258.704 179.042 257.92C179.042 255.792 178.058 254.192 176.09 253.12L177.146 251.344C179.658 252.816 180.97 254.848 181.082 257.44C181.114 258.368 181.322 259.04 181.706 259.456C182.106 259.856 182.738 260.056 183.602 260.056H185.018V262H183.434C182.106 262 181.066 261.576 180.314 260.728C179.786 261.576 178.898 262 177.65 262H172.01ZM183.589 262V260.056H186.877C190.125 260.056 192.693 258.984 194.581 256.84C193.253 254.392 191.637 253.168 189.733 253.168C188.437 253.168 187.101 253.856 185.725 255.232V253.312C187.069 251.952 188.493 251.272 189.997 251.272C191.229 251.272 192.421 251.72 193.573 252.616C194.725 253.496 195.741 254.76 196.621 256.408V257.464C194.269 260.488 191.013 262 186.853 262H183.589ZM190.621 266.776C189.837 266.776 189.445 266.376 189.445 265.576C189.445 264.792 189.837 264.4 190.621 264.4C191.389 264.4 191.773 264.792 191.773 265.576C191.773 266.376 191.389 266.776 190.621 266.776ZM211.2 260.056V262H208.224C208.16 263.376 207.568 264.512 206.448 265.408C205.504 266.144 204.432 266.512 203.232 266.512C202.24 266.512 201.304 266.28 200.424 265.816V263.992C201.272 264.44 202.112 264.664 202.944 264.664C203.792 264.664 204.528 264.4 205.152 263.872C205.792 263.344 206.12 262.712 206.136 261.976C205.304 261.944 204.688 261.912 204.288 261.88C202.56 261.784 201.256 261.2 200.376 260.128C199.64 259.232 199.272 258.072 199.272 256.648C199.272 254.904 199.736 253.544 200.664 252.568C201.496 251.704 202.592 251.272 203.952 251.272C205.376 251.272 206.472 251.696 207.24 252.544C207.896 253.296 208.224 254.28 208.224 255.496V260.056H211.2ZM206.136 255.64C206.136 254.008 205.408 253.192 203.952 253.192C203.12 253.192 202.472 253.496 202.008 254.104C201.544 254.696 201.312 255.528 201.312 256.6C201.312 258.696 202.336 259.808 204.384 259.936C204.768 259.984 205.352 260.024 206.136 260.056V255.64ZM209.768 262V260.056H211.352C212.92 260.056 213.704 259.256 213.704 257.656V252.688L215.768 251.584V257.728C215.768 259.088 215.36 260.16 214.544 260.944C213.792 261.648 212.808 262 211.592 262H209.768ZM211.04 266.776C210.256 266.776 209.864 266.376 209.864 265.576C209.864 264.792 210.256 264.4 211.04 264.4C211.808 264.4 212.192 264.792 212.192 265.576C212.192 266.376 211.808 266.776 211.04 266.776ZM214.088 266.776C213.304 266.776 212.912 266.376 212.912 265.576C212.912 264.792 213.304 264.4 214.088 264.4C214.856 264.4 215.24 264.792 215.24 265.576C215.24 266.376 214.856 266.776 214.088 266.776ZM234.584 247.624L236.672 246.52V257.464C236.672 258.888 236.248 260.016 235.4 260.848C234.6 261.616 233.552 262 232.256 262H224L225.008 260.056H228.512V250.744L230.576 249.64V260.056H232.088C233.752 260.056 234.584 259.184 234.584 257.44V247.624Z" fill="#3C3C3C"/>
</svg>
