<svg width="218" height="286" viewBox="0 0 218 286" fill="none" xmlns="http://www.w3.org/2000/svg">
<path d="M104.5 199C159.452 199 204 154.452 204 99.5C204 44.5477 159.452 0 104.5 0C49.5476 0 5 44.5477 5 99.5C5 154.452 49.5476 199 104.5 199Z" fill="#929292"/>
<path d="M48.1587 91.9999C47.1362 92.0067 46.1351 91.7039 45.284 91.1305C44.433 90.5571 43.771 89.7394 43.3831 88.7824C42.9952 87.8254 42.8992 86.7728 43.1073 85.7602C43.3155 84.7475 43.8184 83.821 44.5513 83.0997C60.466 67.0272 82.0355 58 104.524 58C127.012 58 148.582 67.0272 164.497 83.0997C164.973 83.5818 165.351 84.1542 165.609 84.7841C165.867 85.4141 166 86.0892 166 86.771C166 87.4529 165.867 88.128 165.609 88.758C165.351 89.3879 164.973 89.9602 164.497 90.4424C164.02 90.9245 163.454 91.3069 162.831 91.5679C162.209 91.8288 161.541 91.9631 160.867 91.9631C160.193 91.9631 159.526 91.8288 158.903 91.5679C158.28 91.3069 157.715 90.9245 157.238 90.4424C143.245 76.3142 124.283 68.3793 104.513 68.3793C84.7429 68.3793 65.7805 76.3142 51.7881 90.4424C51.3147 90.9315 50.7503 91.321 50.1273 91.5883C49.5044 91.8556 48.8353 91.9955 48.1587 91.9999Z" fill="white"/>
<path d="M65.1559 109C64.1349 109 63.1369 108.702 62.2883 108.144C61.4397 107.586 60.7788 106.792 60.3895 105.863C60.0001 104.935 59.8999 103.914 60.1014 102.929C60.303 101.945 60.7972 101.042 61.5215 100.334C72.8354 89.2336 88.1631 83 104.143 83C120.123 83 135.451 89.2336 146.765 100.334C147.605 101.298 148.045 102.539 147.996 103.809C147.948 105.078 147.414 106.283 146.502 107.183C145.59 108.082 144.367 108.611 143.077 108.663C141.786 108.714 140.523 108.285 139.54 107.462C130.154 98.2495 117.436 93.0759 104.176 93.0759C90.9166 93.0759 78.1985 98.2495 68.8123 107.462C68.3383 107.945 67.7705 108.331 67.1425 108.595C66.5145 108.859 65.839 108.997 65.1559 109Z" fill="white"/>
<path d="M83.1459 127C82.1284 127.011 81.131 126.703 80.2823 126.114C79.4336 125.526 78.7726 124.684 78.3846 123.697C77.9966 122.711 77.8994 121.625 78.1055 120.58C78.3117 119.535 78.8117 118.579 79.541 117.835C86.1721 110.897 95.1568 107 104.524 107C113.891 107 122.876 110.897 129.507 117.835C129.98 118.331 130.356 118.921 130.612 119.569C130.868 120.218 131 120.913 131 121.615C131 122.317 130.868 123.013 130.612 123.661C130.356 124.31 129.98 124.899 129.507 125.396C129.033 125.892 128.471 126.286 127.853 126.555C127.234 126.823 126.571 126.962 125.902 126.962C125.232 126.962 124.57 126.823 123.951 126.555C123.332 126.286 122.77 125.892 122.297 125.396C119.964 122.947 117.193 121.004 114.143 119.679C111.094 118.353 107.825 117.671 104.524 117.671C101.223 117.671 97.9539 118.353 94.9043 119.679C91.8547 121.004 89.0841 122.947 86.7508 125.396C85.7957 126.405 84.5014 126.981 83.1459 127Z" fill="white"/>
<path d="M109.799 138.047C110.849 139.025 111.565 140.272 111.855 141.631C112.145 142.989 111.997 144.397 111.43 145.676C110.863 146.956 109.902 148.05 108.668 148.82C107.434 149.589 105.984 150 104.5 150C103.016 150 101.566 149.589 100.332 148.82C99.0985 148.05 98.1372 146.956 97.5698 145.676C97.0025 144.397 96.8546 142.989 97.1449 141.631C97.4352 140.272 98.1506 139.025 99.2006 138.047C100.607 136.736 102.513 136 104.5 136C106.487 136 108.393 136.736 109.799 138.047Z" fill="white"/>
<path d="M184.5 199C203.002 199 218 184.002 218 165.5C218 146.998 203.002 132 184.5 132C165.998 132 151 146.998 151 165.5C151 184.002 165.998 199 184.5 199Z" fill="#EE4730"/>
<path d="M171.19 181C170.758 181.002 170.334 180.876 169.974 180.637C169.613 180.398 169.332 180.057 169.166 179.657C169.001 179.258 168.957 178.818 169.043 178.394C169.128 177.97 169.337 177.581 169.644 177.276L196.275 150.644C196.477 150.44 196.718 150.278 196.983 150.167C197.249 150.057 197.533 150 197.821 150C198.108 150 198.393 150.057 198.658 150.167C198.924 150.278 199.164 150.44 199.367 150.644C199.772 151.052 200 151.604 200 152.179C200 152.755 199.772 153.307 199.367 153.715L172.714 180.369C172.309 180.771 171.761 180.998 171.19 181Z" fill="white"/>
<path d="M200 178.81C200.002 179.242 199.876 179.666 199.637 180.026C199.398 180.387 199.057 180.668 198.657 180.834C198.258 180.999 197.818 181.043 197.394 180.957C196.97 180.872 196.581 180.663 196.276 180.356L169.644 153.725C169.44 153.523 169.278 153.282 169.167 153.017C169.057 152.751 169 152.467 169 152.179C169 151.892 169.057 151.607 169.167 151.342C169.278 151.076 169.44 150.836 169.644 150.633C170.052 150.228 170.604 150 171.179 150C171.755 150 172.307 150.228 172.715 150.633L199.369 177.286C199.771 177.691 199.998 178.239 200 178.81Z" fill="white"/>
<path d="M11.7373 244.138V235.606H13.2853V244.138H11.7373ZM11.6113 246.28C11.6113 246.268 11.6113 246.256 11.6113 246.244C11.6353 245.644 11.9533 245.344 12.5653 245.344C13.2013 245.344 13.5193 245.656 13.5193 246.28C13.5193 246.916 13.2013 247.234 12.5653 247.234C11.9293 247.234 11.6113 246.916 11.6113 246.28ZM21.1383 238.63C20.5503 238.63 20.2563 238.33 20.2563 237.73C20.2563 237.142 20.5503 236.848 21.1383 236.848C21.7143 236.848 22.0023 237.142 22.0023 237.73C22.0023 238.33 21.7143 238.63 21.1383 238.63ZM23.4243 238.63C22.8363 238.63 22.5423 238.33 22.5423 237.73C22.5423 237.142 22.8363 236.848 23.4243 236.848C24.0003 236.848 24.2883 237.142 24.2883 237.73C24.2883 238.33 24.0003 238.63 23.4243 238.63ZM30.6423 245.542H31.4703V247H30.4623C29.4543 247 28.6683 246.688 28.1043 246.064C27.5403 246.688 26.7543 247 25.7463 247H19.3203C18.3483 247 17.5863 246.676 17.0343 246.028C16.5543 245.464 16.3143 244.726 16.3143 243.814V241.636L17.8623 240.808V243.67C17.8623 244.918 18.4443 245.542 19.6083 245.542H25.5843C26.7483 245.542 27.3303 244.918 27.3303 243.67V240.016L28.8783 239.188V243.742C28.8783 244.942 29.4663 245.542 30.6423 245.542ZM34.0685 237.01C33.4805 237.01 33.1865 236.71 33.1865 236.11C33.1865 235.522 33.4805 235.228 34.0685 235.228C34.6445 235.228 34.9325 235.522 34.9325 236.11C34.9325 236.71 34.6445 237.01 34.0685 237.01ZM30.3965 247V245.542H31.5845C32.7605 245.542 33.3485 244.942 33.3485 243.742V240.016L34.8965 239.188V243.796C34.8965 244.816 34.5905 245.62 33.9785 246.208C33.4145 246.736 32.6765 247 31.7645 247H30.3965ZM42.5388 245.542H43.7268V247H42.3588C41.7468 247 41.2188 246.88 40.7748 246.64C40.6668 247.828 40.2528 248.776 39.5328 249.484C38.8728 250.132 38.0448 250.456 37.0488 250.456C36.3288 250.456 35.6268 250.276 34.9428 249.916V248.566C35.5548 248.902 36.1668 249.07 36.7788 249.07C37.5468 249.07 38.1468 248.812 38.5788 248.296C39.0108 247.78 39.2268 247.066 39.2268 246.154V240.016L40.7748 239.188V239.206L40.7928 239.188V244.102C40.9008 245.062 41.4828 245.542 42.5388 245.542ZM44.6645 237.136C44.0765 237.136 43.7825 236.836 43.7825 236.236C43.7825 235.648 44.0765 235.354 44.6645 235.354C45.2405 235.354 45.5285 235.648 45.5285 236.236C45.5285 236.836 45.2405 237.136 44.6645 237.136ZM46.9685 237.136C46.3805 237.136 46.0865 236.836 46.0865 236.236C46.0865 235.648 46.3805 235.354 46.9685 235.354C47.5445 235.354 47.8325 235.648 47.8325 236.236C47.8325 236.836 47.5445 237.136 46.9685 237.136ZM48.9125 245.542H50.1005V247H48.7325C47.7365 247 46.9505 246.682 46.3745 246.046C45.7985 246.682 45.0125 247 44.0165 247H42.6485V245.542H43.8365C45.0125 245.542 45.6005 244.942 45.6005 243.742V240.016L47.1485 239.188V243.742C47.1485 244.942 47.7365 245.542 48.9125 245.542ZM52.6838 237.01C52.0958 237.01 51.8018 236.71 51.8018 236.11C51.8018 235.522 52.0958 235.228 52.6838 235.228C53.2598 235.228 53.5478 235.522 53.5478 236.11C53.5478 236.71 53.2598 237.01 52.6838 237.01ZM49.0118 247V245.542H50.1998C51.3758 245.542 51.9638 244.942 51.9638 243.742V240.016L53.5118 239.188V243.796C53.5118 244.816 53.2058 245.62 52.5938 246.208C52.0298 246.736 51.2918 247 50.3798 247H49.0118ZM63.422 236.218L64.988 235.39V243.598C64.988 244.666 64.67 245.512 64.034 246.136C63.434 246.712 62.648 247 61.676 247H55.484L56.24 245.542H58.868V238.558L60.416 237.73V245.542H61.55C62.798 245.542 63.422 244.888 63.422 243.58V236.218ZM60.686 249.43C60.422 249.226 60.17 249.124 59.93 249.124C59.486 249.124 59.264 249.322 59.264 249.718C59.264 249.922 59.348 250.126 59.516 250.33H61.154L60.74 251.104H57.77L58.184 250.33H58.67C58.55 250.114 58.49 249.886 58.49 249.646C58.49 249.298 58.622 248.992 58.886 248.728C59.15 248.476 59.462 248.35 59.822 248.35C60.122 248.35 60.41 248.446 60.686 248.638V249.43ZM71.3545 247C70.3105 247 69.5065 246.664 68.9425 245.992C68.4625 245.416 68.2225 244.684 68.2225 243.796V236.218L69.7705 235.39V243.742C69.7705 244.942 70.3585 245.542 71.5345 245.542H72.7225V247H71.3545ZM71.6348 247V245.542H72.8228C73.9988 245.542 74.5868 244.942 74.5868 243.742V240.016L76.1348 239.188V243.796C76.1348 244.816 75.8288 245.62 75.2168 246.208C74.6528 246.736 73.9148 247 73.0028 247H71.6348ZM74.5328 250.582C73.9448 250.582 73.6508 250.282 73.6508 249.682C73.6508 249.094 73.9448 248.8 74.5328 248.8C75.1088 248.8 75.3968 249.094 75.3968 249.682C75.3968 250.282 75.1088 250.582 74.5328 250.582ZM94.6562 245.542H95.8442V247H94.4762C93.8282 247 93.2462 246.856 92.7302 246.568C92.5622 247.804 92.0042 248.776 91.0562 249.484C90.2162 250.108 89.1782 250.42 87.9422 250.42C86.3342 250.42 85.0922 249.88 84.2162 248.8C83.5442 247.96 83.2082 246.958 83.2082 245.794C83.2082 244.774 83.4542 243.904 83.9462 243.184L85.4942 242.842C84.9422 243.694 84.6662 244.624 84.6662 245.632C84.6662 246.628 84.9842 247.444 85.6202 248.08C86.2082 248.668 86.9822 248.962 87.9422 248.962C89.0342 248.962 89.8742 248.638 90.4622 247.99C90.9662 247.438 91.2182 246.73 91.2182 245.866V236.218L92.7842 235.39V243.742C92.7842 244.942 93.4082 245.542 94.6562 245.542ZM113.2 245.542H114.388V247H113.02C112.012 247 111.226 246.688 110.662 246.064C110.098 246.688 109.312 247 108.304 247H100.852C99.8556 247 99.0696 246.682 98.4936 246.046C97.9176 246.682 97.1316 247 96.1356 247H94.7676V245.542H95.9556C97.1316 245.542 97.7196 244.942 97.7196 243.742V241.222L99.2676 240.394V243.742C99.2676 244.75 99.6576 245.332 100.438 245.488C100.918 243.676 101.71 242.164 102.814 240.952C104.05 239.62 105.49 238.954 107.134 238.954C108.502 238.954 109.594 239.428 110.41 240.376C111.094 241.18 111.436 242.17 111.436 243.346V243.778C111.436 244.954 112.024 245.542 113.2 245.542ZM108.214 245.542C109.33 245.542 109.888 244.918 109.888 243.67V243.346C109.888 242.41 109.6 241.666 109.024 241.114C108.52 240.634 107.896 240.394 107.152 240.394C105.88 240.394 104.734 240.982 103.714 242.158C102.934 243.058 102.334 244.186 101.914 245.542H108.214ZM115.329 237.136C114.741 237.136 114.447 236.836 114.447 236.236C114.447 235.648 114.741 235.354 115.329 235.354C115.905 235.354 116.193 235.648 116.193 236.236C116.193 236.836 115.905 237.136 115.329 237.136ZM117.633 237.136C117.045 237.136 116.751 236.836 116.751 236.236C116.751 235.648 117.045 235.354 117.633 235.354C118.209 235.354 118.497 235.648 118.497 236.236C118.497 236.836 118.209 237.136 117.633 237.136ZM119.577 245.542H120.765V247H119.397C118.401 247 117.615 246.682 117.039 246.046C116.463 246.682 115.677 247 114.681 247H113.313V245.542H114.501C115.677 245.542 116.265 244.942 116.265 243.742V240.016L117.813 239.188V243.742C117.813 244.942 118.401 245.542 119.577 245.542ZM122.628 242.122C122.628 241.078 122.94 240.268 123.564 239.692C124.116 239.2 124.836 238.954 125.724 238.954C126.864 238.954 127.74 239.374 128.352 240.214C128.88 240.922 129.144 241.846 129.144 242.986C129.144 244.282 128.808 245.296 128.136 246.028C127.548 246.676 126.78 247 125.832 247C124.752 247 123.93 246.7 123.366 246.1C122.79 246.7 122.016 247 121.044 247H119.676V245.542H120.864C122.04 245.542 122.628 244.942 122.628 243.742V242.122ZM124.176 243.868C124.176 244.984 124.722 245.542 125.814 245.542C126.378 245.542 126.816 245.314 127.128 244.858C127.452 244.402 127.614 243.766 127.614 242.95C127.614 242.146 127.446 241.522 127.11 241.078C126.774 240.622 126.312 240.394 125.724 240.394C124.692 240.394 124.176 240.994 124.176 242.194V243.868ZM140.73 245.542H141.918V247H140.55C139.938 247 139.41 246.88 138.966 246.64C138.858 247.828 138.444 248.776 137.724 249.484C137.064 250.132 136.236 250.456 135.24 250.456C134.52 250.456 133.818 250.276 133.134 249.916V248.566C133.746 248.902 134.358 249.07 134.97 249.07C135.738 249.07 136.338 248.812 136.77 248.296C137.202 247.78 137.418 247.066 137.418 246.154V240.016L138.966 239.188V239.206L138.984 239.188V244.102C139.092 245.062 139.674 245.542 140.73 245.542ZM147.104 245.542H148.292V247H146.924C145.928 247 145.142 246.682 144.566 246.046C143.99 246.682 143.204 247 142.208 247H140.84V245.542H142.028C143.204 245.542 143.792 244.942 143.792 243.742V240.016L145.34 239.188V243.742C145.34 244.942 145.928 245.542 147.104 245.542ZM142.802 248.8C143.378 248.8 143.666 249.1 143.666 249.7C143.666 250.288 143.378 250.582 142.802 250.582C142.214 250.582 141.92 250.288 141.92 249.7C141.92 249.1 142.214 248.8 142.802 248.8ZM145.088 248.8C145.664 248.8 145.952 249.1 145.952 249.7C145.952 250.288 145.664 250.582 145.088 250.582C144.5 250.582 144.206 250.288 144.206 249.7C144.206 249.1 144.5 248.8 145.088 248.8ZM153.017 237.01C152.429 237.01 152.135 236.71 152.135 236.11C152.135 235.522 152.429 235.228 153.017 235.228C153.593 235.228 153.881 235.522 153.881 236.11C153.881 236.71 153.593 237.01 153.017 237.01ZM156.905 245.542V247H147.203V245.542H150.317C149.729 244.786 149.435 243.856 149.435 242.752C149.435 241.528 149.855 240.556 150.695 239.836C151.379 239.26 152.171 238.966 153.071 238.954C154.343 238.954 155.333 239.464 156.041 240.484V241.942C155.273 240.91 154.343 240.394 153.251 240.394C152.567 240.394 152.015 240.616 151.595 241.06C151.187 241.492 150.983 242.074 150.983 242.806C150.983 243.634 151.229 244.3 151.721 244.804C152.225 245.296 152.891 245.542 153.719 245.542H156.905ZM168.443 238.63C167.855 238.63 167.561 238.33 167.561 237.73C167.561 237.142 167.855 236.848 168.443 236.848C169.019 236.848 169.307 237.142 169.307 237.73C169.307 238.33 169.019 238.63 168.443 238.63ZM170.729 238.63C170.141 238.63 169.847 238.33 169.847 237.73C169.847 237.142 170.141 236.848 170.729 236.848C171.305 236.848 171.593 237.142 171.593 237.73C171.593 238.33 171.305 238.63 170.729 238.63ZM177.947 245.542H178.775V247H177.767C176.759 247 175.973 246.688 175.409 246.064C174.845 246.688 174.059 247 173.051 247H166.625C165.653 247 164.891 246.676 164.339 246.028C163.859 245.464 163.619 244.726 163.619 243.814V241.636L165.167 240.808V243.67C165.167 244.918 165.749 245.542 166.913 245.542H172.889C174.053 245.542 174.635 244.918 174.635 243.67V240.016L176.183 239.188V243.742C176.183 244.942 176.771 245.542 177.947 245.542ZM181.373 237.01C180.785 237.01 180.491 236.71 180.491 236.11C180.491 235.522 180.785 235.228 181.373 235.228C181.949 235.228 182.237 235.522 182.237 236.11C182.237 236.71 181.949 237.01 181.373 237.01ZM177.701 247V245.542H178.889C180.065 245.542 180.653 244.942 180.653 243.742V240.016L182.201 239.188V243.796C182.201 244.816 181.895 245.62 181.283 246.208C180.719 246.736 179.981 247 179.069 247H177.701ZM184.479 235.138L184.893 234.364H185.379C185.259 234.148 185.199 233.926 185.199 233.698C185.199 233.338 185.331 233.032 185.595 232.78C185.859 232.516 186.171 232.384 186.531 232.384C186.831 232.384 187.119 232.48 187.395 232.672V233.464C187.131 233.26 186.879 233.158 186.639 233.158C186.195 233.158 185.973 233.356 185.973 233.752C185.973 233.956 186.057 234.16 186.225 234.364H187.863L187.449 235.138H184.479ZM185.433 247V236.938L186.981 236.11V247H185.433Z" fill="#292929"/>
<path d="M1.40648 280V271.614L2.61048 270.97V280H1.40648ZM4.00523 280L4.59323 278.866H7.08523C7.45857 278.866 7.7199 278.773 7.86923 278.586C8.0279 278.399 8.10723 278.077 8.10723 277.62C8.10723 276.369 7.54257 275.422 6.41323 274.778L7.00123 273.784C8.54123 274.661 9.31123 275.945 9.31123 277.634C9.31123 279.211 8.63923 280 7.29523 280H4.00523ZM10.431 280L11.019 278.866H13.511C13.8843 278.866 14.1457 278.773 14.295 278.586C14.4537 278.399 14.533 278.077 14.533 277.62C14.533 276.379 13.959 275.445 12.811 274.82L13.427 273.784C14.8923 274.643 15.6577 275.828 15.723 277.34C15.7417 277.881 15.863 278.273 16.087 278.516C16.3203 278.749 16.689 278.866 17.193 278.866H18.019V280H17.095C16.3203 280 15.7137 279.753 15.275 279.258C14.967 279.753 14.449 280 13.721 280H10.431ZM26.3135 278.866H27.2235V280H26.2995C25.5435 280 24.9368 279.916 24.4795 279.748C24.0221 279.571 23.5975 279.263 23.2055 278.824C22.0295 279.608 20.6575 280 19.0895 280H17.1855V278.866H19.1035C20.9981 278.866 22.4961 278.241 23.5975 276.99C22.8228 275.562 21.8801 274.848 20.7695 274.848C20.0135 274.848 19.2341 275.249 18.4315 276.052V274.932C19.2155 274.139 20.0461 273.742 20.9235 273.742C21.6421 273.742 22.3375 274.003 23.0095 274.526C23.6815 275.039 24.2741 275.777 24.7875 276.738V277.354C24.4981 277.718 24.2228 278.012 23.9615 278.236C24.4655 278.656 25.2495 278.866 26.3135 278.866ZM21.7355 281.4C22.1835 281.4 22.4075 281.629 22.4075 282.086C22.4075 282.553 22.1835 282.786 21.7355 282.786C21.2781 282.786 21.0495 282.553 21.0495 282.086C21.0495 281.629 21.2781 281.4 21.7355 281.4ZM28.6826 276.206C28.6826 275.394 28.9253 274.764 29.4106 274.316C29.84 273.933 30.4 273.742 31.0906 273.742C31.9773 273.742 32.6586 274.069 33.1346 274.722C33.5453 275.273 33.7506 275.991 33.7506 276.878C33.7506 277.886 33.4893 278.675 32.9666 279.244C32.5093 279.748 31.912 280 31.1746 280C30.3346 280 29.6953 279.767 29.2566 279.3C28.8086 279.767 28.2066 280 27.4506 280H26.3866V278.866H27.3106C28.2253 278.866 28.6826 278.399 28.6826 277.466V276.206ZM29.8866 277.564C29.8866 278.432 30.3113 278.866 31.1606 278.866C31.5993 278.866 31.94 278.689 32.1826 278.334C32.4346 277.979 32.5606 277.485 32.5606 276.85C32.5606 276.225 32.43 275.739 32.1686 275.394C31.9073 275.039 31.548 274.862 31.0906 274.862C30.288 274.862 29.8866 275.329 29.8866 276.262V277.564ZM43.0843 273.49C42.6269 273.49 42.3983 273.257 42.3983 272.79C42.3983 272.333 42.6269 272.104 43.0843 272.104C43.5323 272.104 43.7563 272.333 43.7563 272.79C43.7563 273.257 43.5323 273.49 43.0843 273.49ZM44.8623 273.49C44.4049 273.49 44.1763 273.257 44.1763 272.79C44.1763 272.333 44.4049 272.104 44.8623 272.104C45.3103 272.104 45.5343 272.333 45.5343 272.79C45.5343 273.257 45.3103 273.49 44.8623 273.49ZM50.4763 278.866H51.1203V280H50.3363C49.5523 280 48.9409 279.757 48.5023 279.272C48.0636 279.757 47.4523 280 46.6683 280H41.6703C40.9143 280 40.3216 279.748 39.8923 279.244C39.5189 278.805 39.3323 278.231 39.3323 277.522V275.828L40.5363 275.184V277.41C40.5363 278.381 40.9889 278.866 41.8943 278.866H46.5423C47.4476 278.866 47.9003 278.381 47.9003 277.41V274.568L49.1043 273.924V277.466C49.1043 278.399 49.5616 278.866 50.4763 278.866ZM53.1411 272.23C52.6837 272.23 52.4551 271.997 52.4551 271.53C52.4551 271.073 52.6837 270.844 53.1411 270.844C53.5891 270.844 53.8131 271.073 53.8131 271.53C53.8131 271.997 53.5891 272.23 53.1411 272.23ZM50.2851 280V278.866H51.2091C52.1237 278.866 52.5811 278.399 52.5811 277.466V274.568L53.7851 273.924V277.508C53.7851 278.301 53.5471 278.927 53.0711 279.384C52.6324 279.795 52.0584 280 51.3491 280H50.2851ZM59.7291 278.866H60.6531V280H59.5891C59.1131 280 58.7024 279.907 58.3571 279.72C58.2731 280.644 57.9511 281.381 57.3911 281.932C56.8777 282.436 56.2337 282.688 55.4591 282.688C54.8991 282.688 54.3531 282.548 53.8211 282.268V281.218C54.2971 281.479 54.7731 281.61 55.2491 281.61C55.8464 281.61 56.3131 281.409 56.6491 281.008C56.9851 280.607 57.1531 280.051 57.1531 279.342V274.568L58.3571 273.924V273.938L58.3711 273.924V277.746C58.4551 278.493 58.9077 278.866 59.7291 278.866ZM61.3824 272.328C60.925 272.328 60.6964 272.095 60.6964 271.628C60.6964 271.171 60.925 270.942 61.3824 270.942C61.8304 270.942 62.0544 271.171 62.0544 271.628C62.0544 272.095 61.8304 272.328 61.3824 272.328ZM63.1744 272.328C62.717 272.328 62.4884 272.095 62.4884 271.628C62.4884 271.171 62.717 270.942 63.1744 270.942C63.6224 270.942 63.8464 271.171 63.8464 271.628C63.8464 272.095 63.6224 272.328 63.1744 272.328ZM64.6864 278.866H65.6104V280H64.5464C63.7717 280 63.1604 279.753 62.7124 279.258C62.2644 279.753 61.653 280 60.8784 280H59.8144V278.866H60.7384C61.653 278.866 62.1104 278.399 62.1104 277.466V274.568L63.3144 273.924V277.466C63.3144 278.399 63.7717 278.866 64.6864 278.866ZM67.6196 272.23C67.1623 272.23 66.9336 271.997 66.9336 271.53C66.9336 271.073 67.1623 270.844 67.6196 270.844C68.0676 270.844 68.2916 271.073 68.2916 271.53C68.2916 271.997 68.0676 272.23 67.6196 272.23ZM64.7636 280V278.866H65.6876C66.6023 278.866 67.0596 278.399 67.0596 277.466V274.568L68.2636 273.924V277.508C68.2636 278.301 68.0256 278.927 67.5496 279.384C67.1109 279.795 66.5369 280 65.8276 280H64.7636ZM75.9716 271.614L77.1896 270.97V277.354C77.1896 278.185 76.9422 278.843 76.4476 279.328C75.9809 279.776 75.3696 280 74.6136 280H69.7976L70.3856 278.866H72.4296V273.434L73.6336 272.79V278.866H74.5156C75.4862 278.866 75.9716 278.357 75.9716 277.34V271.614ZM73.8436 281.89C73.6382 281.731 73.4422 281.652 73.2556 281.652C72.9102 281.652 72.7376 281.806 72.7376 282.114C72.7376 282.273 72.8029 282.431 72.9336 282.59H74.2076L73.8856 283.192H71.5756L71.8976 282.59H72.2756C72.1822 282.422 72.1356 282.245 72.1356 282.058C72.1356 281.787 72.2382 281.549 72.4436 281.344C72.6489 281.148 72.8916 281.05 73.1716 281.05C73.4049 281.05 73.6289 281.125 73.8436 281.274V281.89ZM82.1413 280C81.3293 280 80.704 279.739 80.2653 279.216C79.892 278.768 79.7053 278.199 79.7053 277.508V271.614L80.9093 270.97V277.466C80.9093 278.399 81.3666 278.866 82.2813 278.866H83.2053V280H82.1413ZM82.3593 280V278.866H83.2833C84.198 278.866 84.6553 278.399 84.6553 277.466V274.568L85.8593 273.924V277.508C85.8593 278.301 85.6213 278.927 85.1453 279.384C84.7066 279.795 84.1326 280 83.4233 280H82.3593ZM84.6133 282.786C84.156 282.786 83.9273 282.553 83.9273 282.086C83.9273 281.629 84.156 281.4 84.6133 281.4C85.0613 281.4 85.2853 281.629 85.2853 282.086C85.2853 282.553 85.0613 282.786 84.6133 282.786ZM98.8089 279.118C98.8089 280.229 98.4215 281.115 97.6469 281.778C96.9655 282.366 96.0975 282.66 95.0429 282.66C93.7922 282.66 92.8262 282.24 92.1449 281.4C91.6222 280.747 91.3609 279.967 91.3609 279.062C91.3609 278.269 91.5522 277.592 91.9349 277.032L93.1389 276.766C92.7095 277.429 92.4949 278.152 92.4949 278.936C92.4949 279.711 92.7422 280.345 93.2369 280.84C93.6942 281.297 94.2962 281.526 95.0429 281.526C95.8922 281.526 96.5455 281.274 97.0029 280.77C97.3949 280.341 97.5909 279.79 97.5909 279.118V271.614L98.8089 270.97V279.118ZM103.77 280C102.958 280 102.333 279.739 101.894 279.216C101.521 278.768 101.334 278.199 101.334 277.508V271.614L102.538 270.97V277.466C102.538 278.399 102.996 278.866 103.91 278.866H104.834V280H103.77ZM118.324 278.866H119.248V280H118.184C117.4 280 116.789 279.757 116.35 279.272C115.912 279.757 115.3 280 114.516 280H108.72C107.946 280 107.334 279.753 106.886 279.258C106.438 279.753 105.827 280 105.052 280H103.988V278.866H104.912C105.827 278.866 106.284 278.399 106.284 277.466V275.506L107.488 274.862V277.466C107.488 278.25 107.792 278.703 108.398 278.824C108.772 277.415 109.388 276.239 110.246 275.296C111.208 274.26 112.328 273.742 113.606 273.742C114.67 273.742 115.52 274.111 116.154 274.848C116.686 275.473 116.952 276.243 116.952 277.158V277.494C116.952 278.409 117.41 278.866 118.324 278.866ZM114.446 278.866C115.314 278.866 115.748 278.381 115.748 277.41V277.158C115.748 276.43 115.524 275.851 115.076 275.422C114.684 275.049 114.199 274.862 113.62 274.862C112.631 274.862 111.74 275.319 110.946 276.234C110.34 276.934 109.873 277.811 109.546 278.866H114.446ZM119.49 272.23C119.033 272.23 118.804 271.997 118.804 271.53C118.804 271.073 119.033 270.844 119.49 270.844C119.938 270.844 120.162 271.073 120.162 271.53C120.162 271.997 119.938 272.23 119.49 272.23ZM121.268 272.23C120.811 272.23 120.582 271.997 120.582 271.53C120.582 271.073 120.811 270.844 121.268 270.844C121.716 270.844 121.94 271.073 121.94 271.53C121.94 271.997 121.716 272.23 121.268 272.23ZM118.412 280V278.866H119.336C120.251 278.866 120.708 278.399 120.708 277.466V274.568L121.912 273.924V277.508C121.912 278.301 121.674 278.927 121.198 279.384C120.759 279.795 120.185 280 119.476 280H118.412ZM129.62 271.614L130.838 270.97V277.354C130.838 278.185 130.591 278.843 130.096 279.328C129.629 279.776 129.018 280 128.262 280H123.446L124.034 278.866H126.078V273.434L127.282 272.79V278.866H128.164C129.135 278.866 129.62 278.357 129.62 277.34V271.614ZM127.492 281.89C127.287 281.731 127.091 281.652 126.904 281.652C126.559 281.652 126.386 281.806 126.386 282.114C126.386 282.273 126.451 282.431 126.582 282.59H127.856L127.534 283.192H125.224L125.546 282.59H125.924C125.831 282.422 125.784 282.245 125.784 282.058C125.784 281.787 125.887 281.549 126.092 281.344C126.297 281.148 126.54 281.05 126.82 281.05C127.053 281.05 127.277 281.125 127.492 281.274V281.89ZM133.354 280V271.614L134.558 270.97V280H133.354ZM141.796 272.09C141.339 272.09 141.11 271.857 141.11 271.39C141.11 270.933 141.339 270.704 141.796 270.704C142.244 270.704 142.468 270.933 142.468 271.39C142.468 271.857 142.244 272.09 141.796 272.09ZM143.588 272.09C143.131 272.09 142.902 271.857 142.902 271.39C142.902 270.933 143.131 270.704 143.588 270.704C144.036 270.704 144.26 270.933 144.26 271.39C144.26 271.857 144.036 272.09 143.588 272.09ZM142.706 280C141.857 280 141.194 279.715 140.718 279.146C140.307 278.651 140.102 278.021 140.102 277.256C140.102 276.425 140.331 275.707 140.788 275.1C141.255 274.484 141.917 274.031 142.776 273.742C143.681 274.05 144.363 274.535 144.82 275.198C145.231 275.786 145.436 276.472 145.436 277.256C145.436 278.143 145.175 278.838 144.652 279.342C144.185 279.781 143.583 280 142.846 280H142.706ZM142.664 278.866H142.874C143.294 278.866 143.625 278.721 143.868 278.432C144.12 278.143 144.246 277.755 144.246 277.27C144.246 276.15 143.756 275.347 142.776 274.862C141.796 275.347 141.306 276.145 141.306 277.256C141.306 277.751 141.427 278.143 141.67 278.432C141.913 278.721 142.244 278.866 142.664 278.866ZM146.521 280L147.109 278.866H149.601C149.974 278.866 150.236 278.773 150.385 278.586C150.544 278.399 150.623 278.077 150.623 277.62C150.623 276.369 150.058 275.422 148.929 274.778L149.517 273.784C151.057 274.661 151.827 275.945 151.827 277.634C151.827 279.211 151.155 280 149.811 280H146.521ZM156.503 280C155.691 280 155.065 279.739 154.627 279.216C154.253 278.768 154.067 278.199 154.067 277.508V271.614L155.271 270.97V277.466C155.271 278.399 155.728 278.866 156.643 278.866H157.567V280H156.503ZM164.267 278.866V280H156.721V278.866H159.143C158.685 278.278 158.457 277.555 158.457 276.696C158.457 275.744 158.783 274.988 159.437 274.428C159.969 273.98 160.585 273.751 161.285 273.742C162.274 273.742 163.044 274.139 163.595 274.932V276.066C162.997 275.263 162.274 274.862 161.425 274.862C160.893 274.862 160.463 275.035 160.137 275.38C159.819 275.716 159.661 276.169 159.661 276.738C159.661 277.382 159.852 277.9 160.235 278.292C160.627 278.675 161.145 278.866 161.789 278.866H164.267ZM166.221 280V271.614L167.425 270.97V280H166.221ZM165.479 283.486L165.801 282.884H166.179C166.086 282.716 166.039 282.539 166.039 282.352C166.039 282.081 166.142 281.843 166.347 281.638C166.552 281.442 166.795 281.344 167.075 281.344C167.308 281.344 167.532 281.419 167.747 281.568V282.184C167.542 282.025 167.346 281.946 167.159 281.946C166.814 281.946 166.641 282.1 166.641 282.408C166.641 282.567 166.706 282.725 166.837 282.884H168.111L167.789 283.486H165.479ZM181.285 280C181.192 280.821 180.744 281.479 179.941 281.974C179.195 282.431 178.243 282.66 177.085 282.66C175.611 282.66 174.5 282.231 173.753 281.372C173.203 280.737 172.927 279.953 172.927 279.02C172.927 278.236 173.123 277.564 173.515 277.004L174.677 276.752C174.257 277.415 174.047 278.129 174.047 278.894C174.047 279.725 174.318 280.378 174.859 280.854C175.391 281.33 176.133 281.568 177.085 281.568C177.888 281.568 178.551 281.428 179.073 281.148C179.596 280.868 179.913 280.485 180.025 280H178.625L179.213 278.866H181.327V280H181.285ZM180.592 280V278.866H182.51C184.404 278.866 185.902 278.241 187.004 276.99C186.229 275.562 185.286 274.848 184.176 274.848C183.42 274.848 182.64 275.249 181.838 276.052V274.932C182.622 274.139 183.452 273.742 184.33 273.742C185.048 273.742 185.744 274.003 186.416 274.526C187.088 275.039 187.68 275.777 188.194 276.738V277.354C186.822 279.118 184.922 280 182.496 280H180.592ZM184.694 282.786C184.236 282.786 184.008 282.553 184.008 282.086C184.008 281.629 184.236 281.4 184.694 281.4C185.142 281.4 185.366 281.629 185.366 282.086C185.366 282.553 185.142 282.786 184.694 282.786ZM194.014 278.866H194.938V280H193.874C193.398 280 192.988 279.907 192.642 279.72C192.558 280.644 192.236 281.381 191.676 281.932C191.163 282.436 190.519 282.688 189.744 282.688C189.184 282.688 188.638 282.548 188.106 282.268V281.218C188.582 281.479 189.058 281.61 189.534 281.61C190.132 281.61 190.598 281.409 190.934 281.008C191.27 280.607 191.438 280.051 191.438 279.342V274.568L192.642 273.924V273.938L192.656 273.924V277.746C192.74 278.493 193.193 278.866 194.014 278.866ZM194.1 280V278.866H195.024C195.938 278.866 196.396 278.399 196.396 277.466V274.568L197.6 273.924V277.508C197.6 278.301 197.362 278.927 196.886 279.384C196.447 279.795 195.873 280 195.164 280H194.1ZM194.842 282.786C194.384 282.786 194.156 282.553 194.156 282.086C194.156 281.629 194.384 281.4 194.842 281.4C195.29 281.4 195.514 281.629 195.514 282.086C195.514 282.553 195.29 282.786 194.842 282.786ZM196.62 282.786C196.162 282.786 195.934 282.553 195.934 282.086C195.934 281.629 196.162 281.4 196.62 281.4C197.068 281.4 197.292 281.629 197.292 282.086C197.292 282.553 197.068 282.786 196.62 282.786Z" fill="#929292"/>
</svg>
