<svg width="240" height="273" viewBox="0 0 240 273" fill="none" xmlns="http://www.w3.org/2000/svg">
<circle opacity="0.2" cx="119.5" cy="131.5" r="88.5" fill="#7635F3"/>
<path d="M220.882 29.2812L222.184 33.4823C222.381 34.1198 222.88 34.6191 223.518 34.8162L227.719 36.118C228.094 36.2338 228.094 36.7652 227.719 36.882L223.518 38.1837C222.88 38.3809 222.381 38.8802 222.184 39.5177L220.882 43.7188C220.766 44.0938 220.235 44.0938 220.118 43.7188L218.816 39.5177C218.619 38.8802 218.12 38.3809 217.482 38.1837L213.281 36.882C212.906 36.7662 212.906 36.2348 213.281 36.118L217.482 34.8162C218.12 34.6191 218.619 34.1198 218.816 33.4823L220.118 29.2812C220.235 28.9063 220.766 28.9063 220.882 29.2812Z" fill="#7635F3"/>
<path d="M63.4074 60.2812L64.796 64.4823C65.0063 65.1198 65.5388 65.6191 66.2188 65.8162L70.7 67.118C71.1 67.2338 71.1 67.7652 70.7 67.882L66.2188 69.1837C65.5388 69.3809 65.0063 69.8802 64.796 70.5177L63.4074 74.7188C63.284 75.0938 62.7172 75.0938 62.5926 74.7188L61.204 70.5177C60.9937 69.8802 60.4612 69.3809 59.7812 69.1837L55.3 67.882C54.9 67.7662 54.9 67.2348 55.3 67.118L59.7812 65.8162C60.4612 65.6191 60.9937 65.1198 61.204 64.4823L62.5926 60.2812C62.7172 59.9063 63.284 59.9063 63.4074 60.2812Z" fill="#7635F3"/>
<path d="M187.103 74.4681L187.78 78.735C187.882 79.3825 188.298 79.9379 188.89 80.2189L192.792 82.0732C193.14 82.2382 193.066 82.7549 192.685 82.8159L188.418 83.493C187.77 83.5954 187.215 84.0108 186.934 84.603L185.08 88.5053C184.915 88.8537 184.398 88.7792 184.337 88.3983L183.66 84.1313C183.558 83.4838 183.142 82.9284 182.55 82.6474L178.648 80.7932C178.299 80.6281 178.374 80.1114 178.755 80.0504L183.022 79.3733C183.669 79.2709 184.225 78.8554 184.506 78.2632L186.36 74.361C186.526 74.0128 187.043 74.0872 187.103 74.4681Z" fill="#7635F3"/>
<path d="M4.2037 117.15L4.898 119.391C5.00314 119.731 5.26942 119.997 5.60942 120.102L7.85 120.796C8.05 120.858 8.05 121.141 7.85 121.204L5.60942 121.898C5.26942 122.003 5.00314 122.269 4.898 122.609L4.2037 124.85C4.14199 125.05 3.85859 125.05 3.7963 124.85L3.102 122.609C2.99686 122.269 2.73058 122.003 2.39058 121.898L0.15 121.204C-0.0499999 121.142 -0.0499999 120.859 0.15 120.796L2.39058 120.102C2.73058 119.997 2.99686 119.731 3.102 119.391L3.7963 117.15C3.85859 116.95 4.14199 116.95 4.2037 117.15Z" fill="#7635F3"/>
<path opacity="0.4" d="M227.187 92.5437L229.531 100.666C229.886 101.898 230.784 102.864 231.932 103.245L239.494 105.762C240.169 105.985 240.169 107.013 239.494 107.238L231.932 109.755C230.784 110.136 229.886 111.102 229.531 112.334L227.187 120.456C226.979 121.181 226.023 121.181 225.813 120.456L223.469 112.334C223.114 111.102 222.216 110.136 221.068 109.755L213.506 107.238C212.831 107.015 212.831 105.987 213.506 105.762L221.068 103.245C222.216 102.864 223.114 101.898 223.469 100.666L225.813 92.5437C226.023 91.8188 226.979 91.8188 227.187 92.5437Z" fill="#7635F3"/>
<path opacity="0.4" d="M78.1875 0.50625L80.5307 8.06816C80.8856 9.21566 81.7843 10.1144 82.9318 10.4692L90.4938 12.8125C91.1688 13.0208 91.1688 13.9773 90.4938 14.1875L82.9318 16.5307C81.7843 16.8856 80.8856 17.7843 80.5307 18.9318L78.1875 26.4938C77.9792 27.1688 77.0227 27.1688 76.8125 26.4938L74.4693 18.9318C74.1144 17.7843 73.2157 16.8856 72.0682 16.5307L64.5062 14.1875C63.8313 13.9792 63.8313 13.0227 64.5062 12.8125L72.0682 10.4692C73.2157 10.1144 74.1144 9.21566 74.4693 8.06816L76.8125 0.50625C77.0227 -0.16875 77.9792 -0.16875 78.1875 0.50625Z" fill="#7635F3"/>
<ellipse opacity="0.3" cx="144" cy="55.5" rx="5" ry="4.5" fill="#7635F3"/>
<ellipse opacity="0.3" cx="7" cy="107" rx="5" ry="4" fill="#7635F3"/>
<path d="M120 172.667C124.583 172.667 128.333 168.917 128.333 164.333H111.667C111.667 168.917 115.375 172.667 120 172.667ZM145 126.833C145 114.042 138.167 103.333 126.25 100.5V97.6667C126.25 94.2083 123.458 91.4167 120 91.4167C116.542 91.4167 113.75 94.2083 113.75 97.6667V100.5C112.75 100.75 111.792 101.125 110.875 101.458L145 135.583V126.833ZM92.5415 94.9583L86.6665 100.833L98.3748 112.542C96.2082 116.708 94.9998 121.542 94.9998 126.833L94.9998 147.667L89.6248 153.042C86.9998 155.667 88.8332 160.167 92.5415 160.167H146L153.25 167.417L159.125 161.542L92.5415 94.9583Z" fill="#7635F3"/>
<path d="M37.6744 258.184V246.808H39.7384V258.184H37.6744ZM37.5064 261.04C37.5064 261.024 37.5064 261.008 37.5064 260.992C37.5384 260.192 37.9624 259.792 38.7784 259.792C39.6264 259.792 40.0504 260.208 40.0504 261.04C40.0504 261.888 39.6264 262.312 38.7784 262.312C37.9304 262.312 37.5064 261.888 37.5064 261.04ZM50.2092 250.84C49.4252 250.84 49.0332 250.44 49.0332 249.64C49.0332 248.856 49.4252 248.464 50.2092 248.464C50.9772 248.464 51.3612 248.856 51.3612 249.64C51.3612 250.44 50.9772 250.84 50.2092 250.84ZM53.2572 250.84C52.4732 250.84 52.0812 250.44 52.0812 249.64C52.0812 248.856 52.4732 248.464 53.2572 248.464C54.0252 248.464 54.4092 248.856 54.4092 249.64C54.4092 250.44 54.0252 250.84 53.2572 250.84ZM47.7852 262C46.4892 262 45.4732 261.568 44.7372 260.704C44.0972 259.952 43.7772 258.968 43.7772 257.752V254.848L45.8412 253.744V257.56C45.8412 259.224 46.6172 260.056 48.1692 260.056H56.1372C57.6892 260.056 58.4652 259.224 58.4652 257.56V252.688L60.5292 251.584V257.752C60.5292 259.144 60.1052 260.224 59.2572 260.992C58.5052 261.664 57.5372 262 56.3532 262H47.7852ZM64.3788 262V247.624L66.4428 246.52V262H64.3788ZM75.8761 260.728C75.8761 262.52 75.4041 263.96 74.4601 265.048C73.5641 266.088 72.3721 266.608 70.8841 266.608C69.9241 266.608 68.9881 266.368 68.0761 265.888V264.088C68.8921 264.536 69.7081 264.76 70.5241 264.76C71.5481 264.76 72.3481 264.416 72.9241 263.728C73.5001 263.04 73.7881 262.088 73.7881 260.872V252.688L75.8761 251.584V260.728ZM84.3751 262C82.9831 262 81.9111 261.552 81.1591 260.656C80.5191 259.888 80.1991 258.912 80.1991 257.728V247.624L82.2631 246.52V257.656C82.2631 259.256 83.0471 260.056 84.6151 260.056H86.1991V262H84.3751ZM96.6048 260.056H102.941V262H96.4128C95.5488 262 94.6928 261.832 93.8448 261.496C92.9968 261.832 92.1328 262 91.2528 262H84.7487V260.056H91.0848H91.4208C90.2688 259.112 89.0848 257.728 87.8688 255.904V254.848C88.6368 253.744 89.5488 252.872 90.6048 252.232C91.6768 251.592 92.7488 251.272 93.8208 251.272C94.8928 251.272 95.9648 251.6 97.0368 252.256C98.1088 252.896 99.0368 253.776 99.8208 254.896V255.904C98.6048 257.728 97.4128 259.112 96.2448 260.056H96.6048ZM89.7888 255.4C91.2608 257.416 92.6128 258.744 93.8448 259.384C95.0768 258.728 96.4288 257.392 97.9008 255.376C96.7008 253.92 95.3408 253.184 93.8208 253.168C92.3008 253.168 90.9568 253.912 89.7888 255.4ZM114.707 246.472C114.003 246.472 113.651 246.112 113.651 245.392C113.651 244.688 114.003 244.336 114.707 244.336C115.411 244.336 115.763 244.688 115.763 245.392C115.763 246.112 115.411 246.472 114.707 246.472ZM113.195 249.328C112.411 249.328 112.019 248.928 112.019 248.128C112.019 247.344 112.411 246.952 113.195 246.952C113.963 246.952 114.347 247.344 114.347 248.128C114.347 248.928 113.963 249.328 113.195 249.328ZM116.243 249.328C115.459 249.328 115.067 248.928 115.067 248.128C115.067 247.344 115.459 246.952 116.243 246.952C117.011 246.952 117.395 247.344 117.395 248.128C117.395 248.928 117.011 249.328 116.243 249.328ZM101.507 262V260.056H103.667C105.219 260.056 105.995 259.256 105.995 257.656V254.296L108.059 253.192V257.656C108.059 259.256 108.843 260.056 110.411 260.056H111.515C113.083 260.056 113.867 259.256 113.867 257.656V253.48L115.931 252.4V257.656C115.931 259.256 116.707 260.056 118.259 260.056H119.387C120.955 260.056 121.739 259.256 121.739 257.656V252.688L123.803 251.584V257.728C123.803 259.088 123.395 260.152 122.579 260.92C121.859 261.624 120.899 261.984 119.699 262H118.043C116.635 262 115.587 261.528 114.899 260.584C114.211 261.512 113.187 261.984 111.827 262H110.171C108.795 262 107.747 261.528 107.027 260.584C106.339 261.528 105.291 262 103.883 262H101.507ZM128.129 262V247.624L130.193 246.52V262H128.129ZM126.857 267.976L127.409 266.944H128.057C127.897 266.656 127.817 266.352 127.817 266.032C127.817 265.568 127.993 265.16 128.345 264.808C128.697 264.472 129.113 264.304 129.593 264.304C129.993 264.304 130.377 264.432 130.745 264.688V265.744C130.393 265.472 130.057 265.336 129.737 265.336C129.145 265.336 128.849 265.6 128.849 266.128C128.849 266.4 128.961 266.672 129.185 266.944H131.369L130.817 267.976H126.857ZM138.185 262L139.193 260.056H143.465C144.105 260.056 144.553 259.896 144.809 259.576C145.081 259.256 145.217 258.704 145.217 257.92C145.217 255.792 144.233 254.192 142.265 253.12L143.321 251.344C145.833 252.816 147.145 254.848 147.257 257.44C147.289 258.368 147.497 259.04 147.881 259.456C148.281 259.856 148.913 260.056 149.777 260.056H151.193V262H149.609C148.281 262 147.241 261.576 146.489 260.728C145.961 261.576 145.073 262 143.825 262H138.185ZM149.764 262V260.056H153.052C156.3 260.056 158.868 258.984 160.756 256.84C159.428 254.392 157.812 253.168 155.908 253.168C154.612 253.168 153.276 253.856 151.9 255.232V253.312C153.244 251.952 154.668 251.272 156.172 251.272C157.404 251.272 158.596 251.72 159.748 252.616C160.9 253.496 161.916 254.76 162.796 256.408V257.464C160.444 260.488 157.188 262 153.028 262H149.764ZM156.796 266.776C156.012 266.776 155.62 266.376 155.62 265.576C155.62 264.792 156.012 264.4 156.796 264.4C157.564 264.4 157.948 264.792 157.948 265.576C157.948 266.376 157.564 266.776 156.796 266.776ZM177.376 260.056V262H174.4C174.336 263.376 173.744 264.512 172.624 265.408C171.68 266.144 170.608 266.512 169.408 266.512C168.416 266.512 167.48 266.28 166.6 265.816V263.992C167.448 264.44 168.288 264.664 169.12 264.664C169.968 264.664 170.704 264.4 171.328 263.872C171.968 263.344 172.296 262.712 172.312 261.976C171.48 261.944 170.864 261.912 170.464 261.88C168.736 261.784 167.432 261.2 166.552 260.128C165.816 259.232 165.448 258.072 165.448 256.648C165.448 254.904 165.912 253.544 166.84 252.568C167.672 251.704 168.768 251.272 170.128 251.272C171.552 251.272 172.648 251.696 173.416 252.544C174.072 253.296 174.4 254.28 174.4 255.496V260.056H177.376ZM172.312 255.64C172.312 254.008 171.584 253.192 170.128 253.192C169.296 253.192 168.648 253.496 168.184 254.104C167.72 254.696 167.488 255.528 167.488 256.6C167.488 258.696 168.512 259.808 170.56 259.936C170.944 259.984 171.528 260.024 172.312 260.056V255.64ZM175.944 262V260.056H177.528C179.096 260.056 179.88 259.256 179.88 257.656V252.688L181.944 251.584V257.728C181.944 259.088 181.536 260.16 180.72 260.944C179.968 261.648 178.984 262 177.768 262H175.944ZM177.216 266.776C176.432 266.776 176.04 266.376 176.04 265.576C176.04 264.792 176.432 264.4 177.216 264.4C177.984 264.4 178.368 264.792 178.368 265.576C178.368 266.376 177.984 266.776 177.216 266.776ZM180.264 266.776C179.48 266.776 179.088 266.376 179.088 265.576C179.088 264.792 179.48 264.4 180.264 264.4C181.032 264.4 181.416 264.792 181.416 265.576C181.416 266.376 181.032 266.776 180.264 266.776ZM200.759 247.624L202.847 246.52V257.464C202.847 258.888 202.423 260.016 201.575 260.848C200.775 261.616 199.727 262 198.431 262H190.175L191.183 260.056H194.687V250.744L196.751 249.64V260.056H198.263C199.927 260.056 200.759 259.184 200.759 257.44V247.624Z" fill="#3C3C3C"/>
</svg>
