<svg width="20" height="20" viewBox="0 0 20 20" fill="none" xmlns="http://www.w3.org/2000/svg">
<path d="M16.0748 14.4083L14.9998 13.3333V9.16667C14.9998 6.60834 13.6331 4.46667 11.2498 3.9V3.33334C11.2498 2.64167 10.6915 2.08334 9.9998 2.08334C9.30813 2.08334 8.7498 2.64167 8.7498 3.33334V3.9C6.35813 4.46667 4.9998 6.6 4.9998 9.16667V13.3333L3.9248 14.4083C3.3998 14.9333 3.76647 15.8333 4.50813 15.8333H15.4831C16.2331 15.8333 16.5998 14.9333 16.0748 14.4083ZM13.3331 14.1667H6.66647V9.16667C6.66647 7.1 7.9248 5.41667 9.9998 5.41667C12.0748 5.41667 13.3331 7.1 13.3331 9.16667V14.1667ZM9.9998 18.3333C10.9165 18.3333 11.6665 17.5833 11.6665 16.6667H8.33313C8.33313 17.5833 9.0748 18.3333 9.9998 18.3333Z" fill="#7635F3"/>
</svg>
