<svg width="240" height="201" viewBox="0 0 240 201" fill="none" xmlns="http://www.w3.org/2000/svg">
<path opacity="0.2" d="M117.5 201C166.377 201 206 161.377 206 112.5C206 63.6228 166.377 24 117.5 24C68.6228 24 29 63.6228 29 112.5C29 161.377 68.6228 201 117.5 201Z" fill="#43B055"/>
<path d="M152.401 71.3398L53.7216 90.2888C49.0326 91.1892 45.9614 95.7203 46.8618 100.409L57.4424 155.509C58.3428 160.198 62.8739 163.269 67.5629 162.369L166.242 143.42C170.931 142.52 174.002 137.988 173.102 133.299L162.521 78.1996C161.621 73.5106 157.09 70.4393 152.401 71.3398Z" fill="#43B055"/>
<path d="M154.941 70.8516L56.2616 89.8007C51.5726 90.7011 48.5014 95.2321 49.4018 99.9211L59.9825 155.021C60.8829 159.71 65.414 162.781 70.1029 161.881L168.782 142.932C173.471 142.031 176.542 137.5 175.642 132.811L165.061 77.7114C164.161 73.0225 159.63 69.9512 154.941 70.8516Z" fill="white"/>
<path d="M155.572 70.8762L54.9678 90.1909C50.8085 90.9901 48.1718 95.441 49.0701 100.108L50.6568 108.374L166.318 86.1658L164.725 77.9172C163.833 73.2096 159.726 70.077 155.572 70.8762Z" fill="#43B055"/>
<path d="M80.4985 108.928L59.8117 112.901C58.7264 113.109 57.9118 113.617 57.9921 114.035L59.752 123.2C59.8323 123.618 60.7772 123.788 61.8624 123.58L82.5492 119.608C83.6344 119.399 84.4491 118.891 84.3688 118.473L82.6089 109.308C82.5286 108.89 81.5837 108.72 80.4985 108.928Z" fill="#43B055"/>
<path d="M98.6299 117.503L149.36 107.556" stroke="#43B055" stroke-width="5" stroke-linecap="round" stroke-linejoin="round"/>
<path d="M102.609 134.414L147.372 125.461" stroke="#43B055" stroke-width="5" stroke-linecap="round" stroke-linejoin="round"/>
<path d="M153.837 93.6302C165.648 93.6302 175.223 84.0552 175.223 72.2438C175.223 60.4324 165.648 50.8574 153.837 50.8574C142.025 50.8574 132.45 60.4324 132.45 72.2438C132.45 84.0552 142.025 93.6302 153.837 93.6302Z" fill="#00A510"/>
<path d="M157.319 93.6302C168.855 93.6302 178.208 84.0552 178.208 72.2438C178.208 60.4324 168.855 50.8574 157.319 50.8574C145.782 50.8574 136.43 60.4324 136.43 72.2438C136.43 84.0552 145.782 93.6302 157.319 93.6302Z" fill="#43B055"/>
<path d="M157.351 91.6408C153.414 91.6471 149.565 90.5147 146.289 88.3869C143.013 86.2591 140.458 83.2315 138.947 79.6874C137.436 76.1432 137.038 72.2418 137.803 68.4769C138.567 64.7119 140.46 61.2528 143.242 58.5371C146.023 55.8215 149.569 53.9714 153.429 53.2211C157.289 52.4708 161.291 52.854 164.928 54.3221C168.565 55.7903 171.674 58.2774 173.861 61.4687C176.047 64.6601 177.214 68.4122 177.213 72.2502C177.207 77.3869 175.114 82.3122 171.391 85.9468C167.668 89.5814 162.619 91.629 157.351 91.6408V91.6408ZM157.351 53.4908C153.544 53.4845 149.821 54.5794 146.653 56.6368C143.484 58.6943 141.013 61.6219 139.552 65.0492C138.091 68.4764 137.705 72.2493 138.444 75.8904C139.182 79.5314 141.012 82.877 143.702 85.5037C146.391 88.1305 149.819 89.9203 153.553 90.6467C157.286 91.3731 161.156 91.0035 164.674 89.5846C168.191 88.1657 171.198 85.7613 173.314 82.6756C175.429 79.59 176.559 75.9618 176.559 72.2502C176.552 67.2825 174.527 62.5197 170.927 59.004C167.327 55.4883 162.446 53.506 157.351 53.4908V53.4908Z" fill="#00CB14"/>
<path d="M154.443 81.7231C154.102 81.723 153.768 81.6232 153.483 81.436C153.198 81.2488 152.974 80.9823 152.838 80.6693C152.702 80.3563 152.661 80.0104 152.719 79.6742C152.777 79.3381 152.933 79.0262 153.166 78.7771L165.766 65.3134C166.085 64.9813 166.522 64.7881 166.982 64.7758C167.442 64.7635 167.889 64.933 168.225 65.2476C168.561 65.5622 168.759 65.9966 168.777 66.4566C168.795 66.9166 168.632 67.3652 168.321 67.7052L155.721 81.1689C155.557 81.3438 155.359 81.4832 155.139 81.5785C154.92 81.6738 154.683 81.723 154.443 81.7231V81.7231Z" fill="white"/>
<path d="M154.508 81.7226C154.251 81.7222 153.999 81.6655 153.767 81.5567C153.535 81.4478 153.33 81.2894 153.166 81.0926L147.712 74.5883C147.443 74.2301 147.323 73.7829 147.374 73.3384C147.425 72.8939 147.645 72.486 147.988 72.1984C148.331 71.9109 148.77 71.7655 149.217 71.7923C149.664 71.8191 150.083 72.0159 150.389 72.3424L155.849 78.8467C156.064 79.102 156.201 79.4132 156.245 79.7437C156.288 80.0742 156.236 80.4103 156.095 80.7125C155.954 81.0146 155.73 81.2702 155.449 81.4492C155.168 81.6281 154.841 81.723 154.508 81.7226V81.7226Z" fill="white"/>
<path d="M220.882 29.2812L222.184 33.4823C222.381 34.1198 222.88 34.6191 223.518 34.8162L227.719 36.118C228.094 36.2338 228.094 36.7652 227.719 36.882L223.518 38.1837C222.88 38.3809 222.381 38.8802 222.184 39.5177L220.882 43.7188C220.766 44.0938 220.235 44.0938 220.118 43.7188L218.816 39.5177C218.619 38.8802 218.12 38.3809 217.482 38.1837L213.281 36.882C212.906 36.7662 212.906 36.2348 213.281 36.118L217.482 34.8162C218.12 34.6191 218.619 34.1198 218.816 33.4823L220.118 29.2812C220.235 28.9063 220.766 28.9063 220.882 29.2812Z" fill="#12B022"/>
<path d="M63.4074 60.2812L64.796 64.4823C65.0063 65.1198 65.5388 65.6191 66.2188 65.8162L70.7 67.118C71.1 67.2338 71.1 67.7652 70.7 67.882L66.2188 69.1837C65.5388 69.3809 65.0063 69.8802 64.796 70.5177L63.4074 74.7188C63.284 75.0938 62.7172 75.0938 62.5926 74.7188L61.204 70.5177C60.9937 69.8802 60.4612 69.3809 59.7812 69.1837L55.3 67.882C54.9 67.7662 54.9 67.2348 55.3 67.118L59.7812 65.8162C60.4612 65.6191 60.9937 65.1198 61.204 64.4823L62.5926 60.2812C62.7172 59.9063 63.284 59.9063 63.4074 60.2812Z" fill="#12B022"/>
<path d="M187.103 74.4681L187.78 78.735C187.882 79.3825 188.298 79.9379 188.89 80.2189L192.792 82.0732C193.14 82.2382 193.066 82.7549 192.685 82.8159L188.418 83.493C187.77 83.5954 187.215 84.0108 186.934 84.603L185.08 88.5053C184.915 88.8537 184.398 88.7792 184.337 88.3983L183.66 84.1313C183.558 83.4838 183.142 82.9284 182.55 82.6474L178.648 80.7932C178.299 80.6281 178.374 80.1114 178.755 80.0504L183.022 79.3733C183.669 79.2709 184.225 78.8554 184.506 78.2632L186.36 74.361C186.526 74.0128 187.043 74.0872 187.103 74.4681Z" fill="#12B022"/>
<path d="M4.2037 117.15L4.898 119.391C5.00314 119.731 5.26942 119.997 5.60942 120.102L7.85 120.796C8.05 120.858 8.05 121.141 7.85 121.204L5.60942 121.898C5.26942 122.003 5.00314 122.269 4.898 122.609L4.2037 124.85C4.14199 125.05 3.85859 125.05 3.7963 124.85L3.102 122.609C2.99686 122.269 2.73058 122.003 2.39058 121.898L0.15 121.204C-0.0499999 121.142 -0.0499999 120.859 0.15 120.796L2.39058 120.102C2.73058 119.997 2.99686 119.731 3.102 119.391L3.7963 117.15C3.85859 116.95 4.14199 116.95 4.2037 117.15Z" fill="#12B022"/>
<path opacity="0.4" d="M227.187 92.5437L229.531 100.666C229.886 101.898 230.784 102.864 231.932 103.245L239.494 105.762C240.169 105.985 240.169 107.013 239.494 107.238L231.932 109.755C230.784 110.136 229.886 111.102 229.531 112.334L227.187 120.456C226.979 121.181 226.023 121.181 225.813 120.456L223.469 112.334C223.114 111.102 222.216 110.136 221.068 109.755L213.506 107.238C212.831 107.015 212.831 105.987 213.506 105.762L221.068 103.245C222.216 102.864 223.114 101.898 223.469 100.666L225.813 92.5437C226.023 91.8188 226.979 91.8188 227.187 92.5437Z" fill="#12B022"/>
<path opacity="0.4" d="M78.1875 0.50625L80.5307 8.06816C80.8856 9.21566 81.7843 10.1144 82.9318 10.4692L90.4938 12.8125C91.1688 13.0208 91.1688 13.9773 90.4938 14.1875L82.9318 16.5307C81.7843 16.8856 80.8856 17.7843 80.5307 18.9318L78.1875 26.4938C77.9792 27.1688 77.0227 27.1688 76.8125 26.4938L74.4693 18.9318C74.1144 17.7843 73.2157 16.8856 72.0682 16.5307L64.5062 14.1875C63.8313 13.9792 63.8313 13.0227 64.5062 12.8125L72.0682 10.4692C73.2157 10.1144 74.1144 9.21566 74.4693 8.06816L76.8125 0.50625C77.0227 -0.16875 77.9792 -0.16875 78.1875 0.50625Z" fill="#12B022"/>
<ellipse opacity="0.3" cx="144" cy="55.5" rx="5" ry="4.5" fill="#12B022"/>
<ellipse opacity="0.3" cx="7" cy="107" rx="5" ry="4" fill="#12B022"/>
</svg>
