<svg width="240" height="217" viewBox="0 0 240 217" fill="none" xmlns="http://www.w3.org/2000/svg">
<path opacity="0.2" d="M118.5 217C167.377 217 207 177.377 207 128.5C207 79.6228 167.377 40 118.5 40C69.6228 40 30 79.6228 30 128.5C30 177.377 69.6228 217 118.5 217Z" fill="#EE4730"/>
<path d="M220.882 29.2812L222.184 33.4823C222.381 34.1198 222.88 34.6191 223.518 34.8162L227.719 36.118C228.094 36.2338 228.094 36.7652 227.719 36.882L223.518 38.1837C222.88 38.3809 222.381 38.8802 222.184 39.5177L220.882 43.7188C220.766 44.0938 220.235 44.0938 220.118 43.7188L218.816 39.5177C218.619 38.8802 218.12 38.3809 217.482 38.1837L213.281 36.882C212.906 36.7662 212.906 36.2348 213.281 36.118L217.482 34.8162C218.12 34.6191 218.619 34.1198 218.816 33.4823L220.118 29.2812C220.235 28.9063 220.766 28.9063 220.882 29.2812Z" fill="#EE4730"/>
<path d="M63.4074 60.2812L64.796 64.4823C65.0063 65.1198 65.5388 65.6191 66.2188 65.8162L70.7 67.118C71.1 67.2338 71.1 67.7652 70.7 67.882L66.2188 69.1837C65.5388 69.3809 65.0063 69.8802 64.796 70.5177L63.4074 74.7188C63.284 75.0938 62.7172 75.0938 62.5926 74.7188L61.204 70.5177C60.9937 69.8802 60.4612 69.3809 59.7812 69.1837L55.3 67.882C54.9 67.7662 54.9 67.2348 55.3 67.118L59.7812 65.8162C60.4612 65.6191 60.9937 65.1198 61.204 64.4823L62.5926 60.2812C62.7172 59.9063 63.284 59.9063 63.4074 60.2812Z" fill="#EE4730"/>
<path d="M187.103 74.4681L187.78 78.735C187.882 79.3825 188.298 79.9379 188.89 80.2189L192.792 82.0732C193.14 82.2382 193.066 82.7549 192.685 82.8159L188.418 83.493C187.77 83.5954 187.215 84.0108 186.934 84.603L185.08 88.5053C184.915 88.8537 184.398 88.7792 184.337 88.3983L183.66 84.1312C183.558 83.4838 183.142 82.9284 182.55 82.6474L178.648 80.7932C178.299 80.6281 178.374 80.1114 178.755 80.0504L183.022 79.3733C183.669 79.2709 184.225 78.8554 184.506 78.2632L186.36 74.361C186.526 74.0128 187.043 74.0872 187.103 74.4681Z" fill="#EE4730"/>
<path d="M4.2037 117.15L4.898 119.391C5.00314 119.731 5.26942 119.997 5.60942 120.102L7.85 120.796C8.05 120.858 8.05 121.141 7.85 121.204L5.60942 121.898C5.26942 122.003 5.00314 122.269 4.898 122.609L4.2037 124.85C4.14199 125.05 3.85859 125.05 3.7963 124.85L3.102 122.609C2.99686 122.269 2.73058 122.003 2.39058 121.898L0.15 121.204C-0.0499999 121.142 -0.0499999 120.859 0.15 120.796L2.39058 120.102C2.73058 119.997 2.99686 119.731 3.102 119.391L3.7963 117.15C3.85859 116.95 4.14199 116.95 4.2037 117.15Z" fill="#EE4730"/>
<path opacity="0.4" d="M227.187 92.5437L229.531 100.666C229.886 101.898 230.784 102.864 231.932 103.245L239.494 105.762C240.169 105.985 240.169 107.013 239.494 107.238L231.932 109.755C230.784 110.136 229.886 111.102 229.531 112.334L227.187 120.456C226.979 121.181 226.023 121.181 225.813 120.456L223.469 112.334C223.114 111.102 222.216 110.136 221.068 109.755L213.506 107.238C212.831 107.015 212.831 105.987 213.506 105.762L221.068 103.245C222.216 102.864 223.114 101.898 223.469 100.666L225.813 92.5437C226.023 91.8188 226.979 91.8188 227.187 92.5437Z" fill="#EE4730"/>
<path opacity="0.4" d="M78.1875 0.50625L80.5307 8.06816C80.8856 9.21566 81.7843 10.1144 82.9318 10.4692L90.4938 12.8125C91.1688 13.0208 91.1688 13.9773 90.4938 14.1875L82.9318 16.5307C81.7843 16.8856 80.8856 17.7843 80.5307 18.9318L78.1875 26.4937C77.9792 27.1688 77.0227 27.1688 76.8125 26.4937L74.4693 18.9318C74.1144 17.7843 73.2157 16.8856 72.0682 16.5307L64.5062 14.1875C63.8313 13.9792 63.8313 13.0227 64.5062 12.8125L72.0682 10.4692C73.2157 10.1144 74.1144 9.21566 74.4693 8.06816L76.8125 0.50625C77.0227 -0.16875 77.9792 -0.16875 78.1875 0.50625Z" fill="#EE4730"/>
<ellipse opacity="0.3" cx="144" cy="55.5" rx="5" ry="4.5" fill="#EE4730"/>
<ellipse opacity="0.3" cx="7" cy="107" rx="5" ry="4" fill="#EE4730"/>
<path d="M153.401 87.3398L54.7216 106.289C50.0326 107.189 46.9614 111.72 47.8618 116.409L58.4424 171.509C59.3428 176.198 63.8739 179.269 68.5629 178.369L167.242 159.42C171.931 158.52 175.002 153.988 174.102 149.299L163.521 94.1996C162.621 89.5106 158.09 86.4393 153.401 87.3398Z" fill="#EE4730"/>
<path d="M155.941 86.8516L57.2616 105.801C52.5726 106.701 49.5014 111.232 50.4018 115.921L60.9825 171.021C61.8829 175.71 66.414 178.781 71.1029 177.881L169.782 158.932C174.471 158.031 177.542 153.5 176.642 148.811L166.061 93.7114C165.161 89.0225 160.63 85.9512 155.941 86.8516Z" fill="white"/>
<path d="M156.572 86.8762L55.9678 106.191C51.8085 106.99 49.1718 111.441 50.0701 116.108L51.6568 124.374L167.318 102.166L165.725 93.9172C164.833 89.2096 160.726 86.077 156.572 86.8762Z" fill="#EE4730"/>
<path d="M81.4985 124.928L60.8117 128.901C59.7264 129.109 58.9118 129.617 58.9921 130.035L60.752 139.2C60.8323 139.618 61.7772 139.788 62.8624 139.58L83.5492 135.608C84.6344 135.399 85.4491 134.891 85.3688 134.473L83.6089 125.308C83.5286 124.89 82.5837 124.72 81.4985 124.928Z" fill="#EE4730"/>
<path d="M99.6299 133.503L150.36 123.556" stroke="#EE4730" stroke-width="5" stroke-linecap="round" stroke-linejoin="round"/>
<path d="M103.609 150.414L148.372 141.461" stroke="#EE4730" stroke-width="5" stroke-linecap="round" stroke-linejoin="round"/>
<path d="M154.837 109.63C166.648 109.63 176.223 100.055 176.223 88.2438C176.223 76.4324 166.648 66.8574 154.837 66.8574C143.025 66.8574 133.45 76.4324 133.45 88.2438C133.45 100.055 143.025 109.63 154.837 109.63Z" fill="#FA2628"/>
<path d="M158.319 109.63C169.855 109.63 179.208 100.055 179.208 88.2438C179.208 76.4324 169.855 66.8574 158.319 66.8574C146.782 66.8574 137.43 76.4324 137.43 88.2438C137.43 100.055 146.782 109.63 158.319 109.63Z" fill="#EE4730"/>
<path d="M158.351 107.641C154.414 107.647 150.565 106.515 147.289 104.387C144.013 102.259 141.458 99.2315 139.947 95.6874C138.436 92.1432 138.038 88.2418 138.803 84.4769C139.567 80.7119 141.46 77.2528 144.242 74.5371C147.023 71.8215 150.569 69.9714 154.429 69.2211C158.289 68.4708 162.291 68.854 165.928 70.3221C169.565 71.7903 172.674 74.2774 174.861 77.4687C177.047 80.6601 178.214 84.4122 178.213 88.2502C178.207 93.3869 176.114 98.3122 172.391 101.947C168.668 105.581 163.619 107.629 158.351 107.641ZM158.351 69.4908C154.544 69.4845 150.821 70.5794 147.653 72.6368C144.484 74.6943 142.013 77.6219 140.552 81.0492C139.091 84.4764 138.705 88.2493 139.444 91.8904C140.182 95.5314 142.012 98.877 144.702 101.504C147.391 104.13 150.819 105.92 154.553 106.647C158.286 107.373 162.156 107.003 165.674 105.585C169.191 104.166 172.198 101.761 174.314 98.6756C176.429 95.59 177.559 91.9618 177.559 88.2502C177.552 83.2825 175.527 78.5197 171.927 75.004C168.327 71.4883 163.446 69.506 158.351 69.4908Z" fill="#D24849"/>
<path d="M152.182 96.9479C151.84 96.9478 151.507 96.8481 151.221 96.6608C150.936 96.4736 150.712 96.2071 150.576 95.8941C150.44 95.5811 150.399 95.2352 150.457 94.8991C150.516 94.5629 150.671 94.251 150.904 94.002L163.504 80.5382C163.823 80.2061 164.26 80.013 164.72 80.0006C165.18 79.9883 165.627 80.1578 165.963 80.4724C166.299 80.787 166.498 81.2214 166.516 81.6814C166.534 82.1414 166.37 82.59 166.059 82.93L153.459 96.3937C153.295 96.5686 153.098 96.708 152.878 96.8033C152.658 96.8986 152.421 96.9479 152.182 96.9479Z" fill="white"/>
<path d="M166.948 94.7667C166.948 95.1079 166.848 95.4417 166.661 95.7269C166.474 96.0121 166.207 96.2364 165.894 96.3721C165.581 96.5079 165.235 96.5492 164.899 96.4909C164.563 96.4327 164.251 96.2774 164.002 96.0443L150.538 83.4439C150.206 83.1251 150.013 82.6883 150.001 82.2281C149.988 81.768 150.158 81.3214 150.472 80.9853C150.787 80.6493 151.221 80.4507 151.681 80.4326C152.141 80.4145 152.59 80.5784 152.93 80.8888L166.394 93.4892C166.569 93.6529 166.708 93.8507 166.803 94.0705C166.899 94.2902 166.948 94.5272 166.948 94.7667Z" fill="white"/>
</svg>
