<svg width="20" height="20" viewBox="0 0 20 20" fill="none" xmlns="http://www.w3.org/2000/svg">
<path d="M10.0085 13.3333C9.7835 13.3333 9.57516 13.25 9.41683 13.0917C9.25016 12.925 9.17516 12.7333 9.17516 12.5C9.16683 12.0417 9.5335 11.675 9.99183 11.6667C10.0002 11.6667 10.0002 11.6667 10.0085 11.6667C10.2418 11.6667 10.4335 11.75 10.6002 11.9083C10.7502 12.0667 10.8335 12.2667 10.8335 12.4917C10.8335 12.7167 10.7502 12.9167 10.5918 13.0833C10.4335 13.25 10.2335 13.3333 10.0085 13.3333ZM9.27516 10.2833C9.27516 9.90833 9.3585 9.58333 9.51683 9.31667C9.67516 9.04167 9.9585 8.73333 10.3502 8.38333C10.5835 8.175 10.7502 7.99167 10.8585 7.83333C10.9668 7.675 11.0168 7.5 11.0168 7.3C11.0168 7.05833 10.9252 6.85833 10.7502 6.68333C10.5752 6.51667 10.3335 6.43333 10.0418 6.43333C9.7335 6.43333 9.42516 6.51667 9.24183 6.68333C9.06683 6.85 8.9085 7.05833 8.9085 7.5H7.50016C7.50016 6.65833 7.8835 6.05833 8.3085 5.65833C8.77516 5.23333 9.37516 5 10.0002 5C10.4918 5 10.9252 5.1 11.3085 5.29167C11.6918 5.48333 11.9668 5.75 12.1835 6.09167C12.4002 6.43333 12.5002 6.80833 12.5002 7.21667C12.5002 7.625 12.4168 7.96667 12.2418 8.25833C12.0668 8.55 11.8418 8.85 11.5002 9.16667C11.2335 9.41667 11.0585 9.63333 10.9585 9.80833C10.8585 9.98333 10.8085 10.2167 10.8085 10.4833V10.8333H9.26683V10.2833H9.27516ZM15.0002 8.5C15.0002 5.475 12.7918 3.33333 10.0002 3.33333C7.2085 3.33333 5.00016 5.475 5.00016 8.5C5.00016 10.45 6.62516 13.0333 10.0002 16.1167C13.3752 13.0333 15.0002 10.45 15.0002 8.5ZM10.0002 1.66667C13.5002 1.66667 16.6668 4.35 16.6668 8.5C16.6668 11.2667 14.4418 14.5417 10.0002 18.3333C5.5585 14.5417 3.3335 11.2667 3.3335 8.5C3.3335 4.35 6.50016 1.66667 10.0002 1.66667Z" fill="#7635F3"/>
</svg>
