<svg width="20" height="20" viewBox="0 0 20 20" fill="none" xmlns="http://www.w3.org/2000/svg">
<path d="M19.717 15.3652C16.2553 13.7109 15.7035 11.1568 15.679 10.9674C15.6493 10.7379 15.6156 10.5575 15.872 10.324C16.1193 10.0985 17.2165 9.42811 17.5209 9.21836C18.0241 8.87105 18.2457 8.52429 18.0824 8.09804C17.9681 7.80316 17.69 7.69208 17.397 7.69208C17.3046 7.69236 17.2125 7.70257 17.1223 7.72253C16.5694 7.84093 16.0325 8.11439 15.7218 8.18825C15.6845 8.19775 15.6461 8.20286 15.6076 8.20347C15.4419 8.20347 15.3791 8.13074 15.3951 7.93396C15.434 7.33743 15.5162 6.17313 15.4208 5.0855C15.29 3.5891 14.8011 2.84767 14.2214 2.19194C13.941 1.87394 12.6387 0.507782 10.1257 0.507782C7.61262 0.507782 6.31212 1.87394 6.0334 2.18799C5.45196 2.84372 4.96363 3.58516 4.83398 5.08156C4.7386 6.16918 4.82427 7.33292 4.85968 7.93002C4.87111 8.11721 4.81285 8.19953 4.64721 8.19953C4.60867 8.19887 4.57033 8.19377 4.53298 8.1843C4.22285 8.11044 3.68597 7.83699 3.1331 7.71858C3.04291 7.69862 2.9508 7.68841 2.85837 7.68813C2.56423 7.68813 2.28722 7.8009 2.17299 8.09409C2.00964 8.52034 2.23011 8.8671 2.73501 9.21442C3.03943 9.42416 4.13661 10.094 4.38391 10.3201C4.63979 10.5535 4.60666 10.7339 4.57696 10.9634C4.5524 11.1557 4.0001 13.7098 0.538934 15.3613C0.336176 15.4583 -0.00879857 15.6635 0.599476 15.995C1.55444 16.516 2.19013 16.4602 2.68417 16.7742C3.1034 17.0409 2.85552 17.616 3.16051 17.8235C3.53519 18.0789 4.64265 17.8055 6.07338 18.2718C7.27279 18.6619 8.00158 19.7642 10.1285 19.7642C12.2555 19.7642 13.0054 18.6568 14.1837 18.2718C15.6116 17.8055 16.7213 18.0789 17.0966 17.8235C17.401 17.616 17.1537 17.0409 17.5729 16.7742C18.067 16.4602 18.7021 16.516 19.6576 15.995C20.2647 15.6674 19.9198 15.4622 19.717 15.3652Z" fill="#7635F3"/>
</svg>
