<svg width="20" height="20" viewBox="0 0 20 20" fill="none" xmlns="http://www.w3.org/2000/svg">
<path d="M15.8333 11.6667V15H14.1667V11.6667H15.8333ZM5.83333 11.6667V15H5C4.54167 15 4.16667 14.625 4.16667 14.1667V11.6667H5.83333ZM10 0.833332C5.85833 0.833332 2.5 4.19167 2.5 8.33333V14.1667C2.5 15.55 3.61667 16.6667 5 16.6667H7.5V10H4.16667V8.33333C4.16667 5.10833 6.775 2.5 10 2.5C13.225 2.5 15.8333 5.10833 15.8333 8.33333V10H12.5V16.6667H15.8333V17.5H10V19.1667H15C16.3833 19.1667 17.5 18.05 17.5 16.6667V8.33333C17.5 4.19167 14.1417 0.833332 10 0.833332Z" fill="#7635F3"/>
</svg>
