<svg width="22" height="17" viewBox="0 0 22 17" fill="none" xmlns="http://www.w3.org/2000/svg">
<path d="M21.2436 2.17402C20.4702 2.55354 19.6968 2.68004 18.7946 2.80655C19.6968 2.30052 20.3413 1.54149 20.5991 0.52944C19.8257 1.03546 18.9235 1.28848 17.8923 1.54149C17.119 0.782452 15.9589 0.276428 14.7989 0.276428C12.0921 0.276428 10.0298 2.80655 10.6743 5.33667C7.19418 5.21016 4.10073 3.56559 1.90954 1.03546C0.749499 2.93306 1.39397 5.33667 3.19848 6.60173C2.55401 6.60173 1.90954 6.34872 1.26507 6.09571C1.26507 7.9933 2.6829 9.76438 4.61631 10.2704C3.97184 10.3969 3.32737 10.5234 2.6829 10.3969C3.19848 12.0415 4.7452 13.3066 6.6786 13.3066C5.13188 14.4451 2.8118 15.0776 0.620605 14.8246C2.55401 15.9632 4.7452 16.7222 7.06528 16.7222C14.9278 16.7222 19.3102 10.2704 19.0524 4.32462C19.9546 3.8186 20.728 3.05956 21.2436 2.17402Z" fill="#7635F3"/>
</svg>
