<svg width="20" height="20" viewBox="0 0 20 20" fill="none" xmlns="http://www.w3.org/2000/svg">
<path d="M15.8332 5.83333H14.9998V5C14.9998 4.33696 14.7364 3.70107 14.2676 3.23223C13.7988 2.76339 13.1629 2.5 12.4998 2.5H4.1665C3.50346 2.5 2.86758 2.76339 2.39874 3.23223C1.9299 3.70107 1.6665 4.33696 1.6665 5V15C1.6665 15.663 1.9299 16.2989 2.39874 16.7678C2.86758 17.2366 3.50346 17.5 4.1665 17.5H15.8332C16.4962 17.5 17.1321 17.2366 17.6009 16.7678C18.0698 16.2989 18.3332 15.663 18.3332 15V8.33333C18.3332 7.67029 18.0698 7.03441 17.6009 6.56557C17.1321 6.09673 16.4962 5.83333 15.8332 5.83333ZM4.1665 4.16667H12.4998C12.7209 4.16667 12.9328 4.25446 13.0891 4.41074C13.2454 4.56702 13.3332 4.77899 13.3332 5V5.83333H4.1665C3.94549 5.83333 3.73353 5.74554 3.57725 5.58926C3.42097 5.43298 3.33317 5.22101 3.33317 5C3.33317 4.77899 3.42097 4.56702 3.57725 4.41074C3.73353 4.25446 3.94549 4.16667 4.1665 4.16667ZM16.6665 12.5H15.8332C15.6122 12.5 15.4002 12.4122 15.2439 12.2559C15.0876 12.0996 14.9998 11.8877 14.9998 11.6667C14.9998 11.4457 15.0876 11.2337 15.2439 11.0774C15.4002 10.9211 15.6122 10.8333 15.8332 10.8333H16.6665V12.5ZM16.6665 9.16667H15.8332C15.1701 9.16667 14.5342 9.43006 14.0654 9.8989C13.5966 10.3677 13.3332 11.0036 13.3332 11.6667C13.3332 12.3297 13.5966 12.9656 14.0654 13.4344C14.5342 13.9033 15.1701 14.1667 15.8332 14.1667H16.6665V15C16.6665 15.221 16.5787 15.433 16.4224 15.5893C16.2661 15.7455 16.0542 15.8333 15.8332 15.8333H4.1665C3.94549 15.8333 3.73353 15.7455 3.57725 15.5893C3.42097 15.433 3.33317 15.221 3.33317 15V7.35833C3.60089 7.45251 3.8827 7.50042 4.1665 7.5H15.8332C16.0542 7.5 16.2661 7.5878 16.4224 7.74408C16.5787 7.90036 16.6665 8.11232 16.6665 8.33333V9.16667Z" fill="#7635F3"/>
</svg>
