<svg width="22" height="21" viewBox="0 0 22 21" fill="none" xmlns="http://www.w3.org/2000/svg">
<path fill-rule="evenodd" clip-rule="evenodd" d="M18.1653 3.28903C16.2319 1.39144 13.654 0.379395 10.9472 0.379395C5.27591 0.379395 0.635742 4.93361 0.635742 10.4999C0.635742 12.271 1.15132 14.042 2.05358 15.5601L0.635742 20.6204L6.04929 19.2288C7.59601 19.9878 9.27161 20.4939 10.9472 20.4939C16.6185 20.4939 21.2587 15.9396 21.2587 10.3734C21.2587 7.71675 20.0987 5.18663 18.1653 3.28903ZM10.9472 18.8493C9.4005 18.8493 7.85379 18.4698 6.56485 17.7107L6.30705 17.5842L3.08471 18.4698L3.98698 15.4336L3.72918 15.0541C2.82692 13.6625 2.44024 12.1445 2.44024 10.6264C2.44024 6.07217 6.30706 2.27699 10.9472 2.27699C13.2673 2.27699 15.3296 3.16253 17.0052 4.6806C18.6809 6.32518 19.4542 8.34928 19.4542 10.6264C19.4542 15.0541 15.7163 18.8493 10.9472 18.8493ZM15.5874 12.524C15.3296 12.3975 14.0407 11.7649 13.7829 11.7649C13.5251 11.6384 13.3962 11.6384 13.2673 11.8914C13.1384 12.1445 12.6229 12.6505 12.494 12.9035C12.3651 13.03 12.2361 13.03 11.9784 13.03C11.7206 12.9035 10.9472 12.6505 9.91609 11.7649C9.14273 11.1324 8.62715 10.2469 8.49825 9.99386C8.36936 9.74084 8.49826 9.61434 8.62716 9.48783C8.75605 9.36132 8.88493 9.23482 9.01382 9.10831C9.14271 8.98181 9.14273 8.8553 9.27162 8.7288C9.40052 8.60229 9.27162 8.47578 9.27162 8.34928C9.27162 8.22277 8.75604 6.95771 8.49825 6.45169C8.36936 6.07217 8.11158 6.07217 7.98269 6.07217C7.8538 6.07217 7.72487 6.07217 7.46708 6.07217C7.33819 6.07217 7.0804 6.07217 6.82262 6.32518C6.56483 6.57819 5.92038 7.21072 5.92038 8.47578C5.92038 9.74084 6.82262 10.8794 6.95152 11.1324C7.08041 11.2589 8.75602 13.9155 11.3339 14.9276C13.5251 15.8131 13.9118 15.5601 14.4274 15.5601C14.9429 15.5601 15.9741 14.9276 16.103 14.4216C16.3608 13.789 16.3608 13.283 16.2319 13.283C16.103 12.6505 15.8452 12.6505 15.5874 12.524Z" fill="#7635F3"/>
</svg>
